_Griffith_Gothic-Condensed_Black_WebTT.ufo
<glyph name="exclam" format="1">
  <advance width="477.184"/>
  <unicode hex="0021"/>
  <outline>
    <contour>
      <point x="240" y="291" type="qcurve" smooth="yes"/>
      <point x="304.179104478" y="291.0"/>
      <point x="391.0" y="203.179104478"/>
      <point x="391" y="139" type="qcurve" smooth="yes"/>
      <point x="391.0" y="73.328358209"/>
      <point x="304.179104478" y="-14.0"/>
      <point x="240" y="-14" type="qcurve" smooth="yes"/>
      <point x="174.328358209" y="-14.0"/>
      <point x="86.0" y="73.328358209"/>
      <point x="86" y="139" type="qcurve" smooth="yes"/>
      <point x="86.0" y="203.179104478"/>
      <point x="174.328358209" y="291.0"/>
    </contour>
    <contour>
      <point x="76" y="1475" type="line"/>
      <point x="401" y="1475" type="line"/>
      <point x="313" y="440" type="line"/>
      <point x="164" y="440" type="line"/>
    </contour>
  </outline>
</glyph>
<glyph name="dollar" format="1">
  <advance width="948.224"/>
  <unicode hex="0024"/>
  <outline>
    <contour>
      <point x="530" y="852" type="line"/>
      <point x="726.268656716" y="769.164179104"/>
      <point x="915.0" y="565.223880597"/>
      <point x="915" y="410" type="qcurve" smooth="yes"/>
      <point x="915.0" y="227.910447761"/>
      <point x="708.462686567" y="17.1641791045"/>
      <point x="551" y="0" type="qcurve"/>
      <point x="551" y="-195" type="line"/>
      <point x="410" y="-195" type="line"/>
      <point x="410" y="-2" type="line"/>
      <point x="304.029850746" y="11.4328358209"/>
      <point x="102.104477612" y="117.298507463"/>
      <point x="23" y="227" type="qcurve"/>
      <point x="186" y="389" type="line"/>
      <point x="241.223880597" y="315.865671642"/>
      <point x="363.313432836" y="228.940298507"/>
      <point x="426" y="217" type="qcurve"/>
      <point x="426" y="637" type="line"/>
      <point x="285.701492537" y="699.686567164"/>
      <point x="51.0" y="891.447761194"/>
      <point x="51" y="1081" type="qcurve" smooth="yes"/>
      <point x="51.0" y="1244.43283582"/>
      <point x="242.835820896" y="1463.8358209"/>
      <point x="410" y="1481" type="qcurve"/>
      <point x="410" y="1561" type="line"/>
      <point x="549" y="1561" type="line"/>
      <point x="549" y="1479" type="line"/>
      <point x="657.208955224" y="1464.82089552"/>
      <point x="825.835820896" y="1363.28358209"/>
      <point x="893" y="1270" type="qcurve"/>
      <point x="723" y="1112" type="line"/>
      <point x="673.746268657" y="1174.68656716"/>
      <point x="579.253731343" y="1245.05970149"/>
      <point x="530" y="1257" type="qcurve"/>
    </contour>
    <contour>
      <point x="291" y="1102" type="qcurve" smooth="yes"/>
      <point x="291.0" y="1034.8358209"/>
      <point x="355.850746269" y="933.567164179"/>
      <point x="426" y="897" type="qcurve"/>
      <point x="426" y="1268" type="line"/>
      <point x="364.805970149" y="1259.79104478"/>
      <point x="291.0" y="1169.1641791"/>
    </contour>
    <contour>
      <point x="530" y="211" type="line"/>
      <point x="591.194029851" y="221.447761194"/>
      <point x="666.0" y="304.880597015"/>
      <point x="666" y="381" type="qcurve" smooth="yes"/>
      <point x="666.0" y="452.641791045"/>
      <point x="606.865671642" y="549.462686567"/>
      <point x="530" y="592" type="qcurve"/>
    </contour>
  </outline>
</glyph>
<glyph name="ampersand" format="1">
  <advance width="1173.504"/>
  <unicode hex="0026"/>
  <outline>
    <contour>
      <point x="1159" y="205" type="qcurve"/>
      <point x="1159" y="4" type="line"/>
      <point x="1128.40298507" y="-4.9552238806"/>
      <point x="1076.08955224" y="-14.0"/>
      <point x="1044" y="-14" type="qcurve" smooth="yes"/>
      <point x="961.910447761" y="-14.0"/>
      <point x="833.641791045" y="38.1343283582"/>
      <point x="762" y="115" type="qcurve"/>
      <point x="690.358208955" y="49.328358209"/>
      <point x="531.313432836" y="-20.0"/>
      <point x="444" y="-20" type="qcurve" smooth="yes"/>
      <point x="252.955223881" y="-20.0"/>
      <point x="31.0" y="196.462686567"/>
      <point x="31" y="389" type="qcurve" smooth="yes"/>
      <point x="31.0" y="526.313432836"/>
      <point x="154.671641791" y="739.223880597"/>
      <point x="289" y="834" type="qcurve"/>
      <point x="238.253731343" y="926.537313433"/>
      <point x="188.0" y="1088.20895522"/>
      <point x="188" y="1180" type="qcurve" smooth="yes"/>
      <point x="188.0" y="1318.80597015"/>
      <point x="359.52238806" y="1499.0"/>
      <point x="514" y="1499" type="qcurve" smooth="yes"/>
      <point x="658.029850746" y="1499.0"/>
      <point x="797.0" y="1326.92537313"/>
      <point x="797" y="1212" type="qcurve" smooth="yes"/>
      <point x="797.0" y="1083.64179104"/>
      <point x="677.955223881" y="902.343283582"/>
      <point x="569" y="821" type="qcurve"/>
      <point x="633.179104478" y="711.298507463"/>
      <point x="737.462686567" y="540.671641791"/>
      <point x="780" y="475" type="qcurve"/>
      <point x="818.059701493" y="554.850746269"/>
      <point x="890.417910448" y="752.835820896"/>
      <point x="924" y="870" type="qcurve"/>
      <point x="1122" y="774" type="line"/>
      <point x="1076.47761194" y="629.223880597"/>
      <point x="971.208955224" y="388.791044776"/>
      <point x="913" y="297" type="qcurve"/>
      <point x="962.253731343" y="234.313432836"/>
      <point x="1031.92537313" y="190.0"/>
      <point x="1067" y="190" type="qcurve" smooth="yes"/>
      <point x="1097.59701493" y="190.0"/>
      <point x="1134.37313433" y="197.537313433"/>
    </contour>
    <contour>
      <point x="494" y="190" type="qcurve" smooth="yes"/>
      <point x="533.552238806" y="190.0"/>
      <point x="606.910447761" y="229.432835821"/>
      <point x="639" y="266" type="qcurve"/>
      <point x="586.76119403" y="339.880597015"/>
      <point x="459.626865672" y="540.149253731"/>
      <point x="385" y="670" type="qcurve"/>
      <point x="332.76119403" y="617.76119403"/>
      <point x="289.0" y="505.671641791"/>
      <point x="289" y="440" type="qcurve" smooth="yes"/>
      <point x="289.0" y="337.76119403"/>
      <point x="392.507462687" y="190.0"/>
    </contour>
    <contour>
      <point x="473" y="950" type="qcurve"/>
      <point x="540.164179104" y="1009.70149254"/>
      <point x="592.0" y="1126.80597015"/>
      <point x="592" y="1188" type="qcurve" smooth="yes"/>
      <point x="592.0" y="1256.65671642"/>
      <point x="545.552238806" y="1337.0"/>
      <point x="506" y="1337" type="qcurve" smooth="yes"/>
      <point x="456.746268657" y="1337.0"/>
      <point x="406.0" y="1257.67164179"/>
      <point x="406" y="1192" type="qcurve" smooth="yes"/>
      <point x="406.0" y="1136.7761194"/>
      <point x="434.940298507" y="1025.37313433"/>
    </contour>
  </outline>
</glyph>
<glyph name="quotesingle" format="1">
  <advance width="382.976"/>
  <unicode hex="0027"/>
  <outline>
    <contour>
      <point x="57" y="1475" type="line"/>
      <point x="326" y="1475" type="line"/>
      <point x="260" y="909" type="line"/>
      <point x="125" y="909" type="line"/>
    </contour>
  </outline>
</glyph>
<glyph name="parenleft" format="1">
  <advance width="618.496"/>
  <unicode hex="0028"/>
  <outline>
    <contour>
      <point x="334" y="655" type="qcurve" smooth="yes"/>
      <point x="334.0" y="421.417910448"/>
      <point x="458.179104478" y="5.74626865672"/>
      <point x="594" y="-195" type="qcurve"/>
      <point x="375" y="-195" type="line"/>
      <point x="249.626865672" y="-45.0"/>
      <point x="66.0" y="374.402985075"/>
      <point x="66" y="655" type="qcurve" smooth="yes"/>
      <point x="66.0" y="936.343283582"/>
      <point x="249.626865672" y="1355.74626866"/>
      <point x="375" y="1505" type="qcurve"/>
      <point x="594" y="1505" type="line"/>
      <point x="458.179104478" y="1305.0"/>
      <point x="334.0" y="889.328358209"/>
    </contour>
  </outline>
</glyph>
<glyph name="parenright" format="1">
  <advance width="618.496"/>
  <unicode hex="0029"/>
  <outline>
    <contour>
      <point x="244" y="1505" type="line"/>
      <point x="367.880597015" y="1355.74626866"/>
      <point x="551.0" y="936.343283582"/>
      <point x="551" y="655" type="qcurve" smooth="yes"/>
      <point x="551.0" y="374.402985075"/>
      <point x="367.880597015" y="-45.0"/>
      <point x="244" y="-195" type="qcurve"/>
      <point x="23" y="-195" type="line"/>
      <point x="158.820895522" y="5.74626865672"/>
      <point x="285.0" y="421.417910448"/>
      <point x="285" y="655" type="qcurve" smooth="yes"/>
      <point x="285.0" y="889.328358209"/>
      <point x="158.820895522" y="1305.0"/>
      <point x="23" y="1505" type="qcurve"/>
    </contour>
  </outline>
</glyph>
<glyph name="asterisk" format="1">
  <advance width="675.84"/>
  <unicode hex="002A"/>
  <outline>
    <contour>
      <point x="575" y="1380" type="line"/>
      <point x="637" y="1194" type="line"/>
      <point x="406" y="1180" type="line"/>
      <point x="592" y="1030" type="line"/>
      <point x="430" y="911" type="line"/>
      <point x="338" y="1139" type="line"/>
      <point x="246" y="911" type="line"/>
      <point x="84" y="1030" type="line"/>
      <point x="270" y="1180" type="line"/>
      <point x="39" y="1194" type="line"/>
      <point x="100" y="1380" type="line"/>
      <point x="299" y="1247" type="line"/>
      <point x="238" y="1475" type="line"/>
      <point x="438" y="1475" type="line"/>
      <point x="377" y="1247" type="line"/>
    </contour>
  </outline>
</glyph>
<glyph name="comma" format="1">
  <advance width="421.888"/>
  <unicode hex="002C"/>
  <outline>
    <contour>
      <point x="102" y="297" type="line"/>
      <point x="375" y="297" type="line"/>
      <point x="176" y="-227" type="line"/>
      <point x="49" y="-227" type="line"/>
    </contour>
  </outline>
</glyph>
<glyph name="period" format="1">
  <advance width="415.744"/>
  <unicode hex="002E"/>
  <outline>
    <contour>
      <point x="211" y="291" type="qcurve" smooth="yes"/>
      <point x="276.671641791" y="291.0"/>
      <point x="365.0" y="203.179104478"/>
      <point x="365" y="139" type="qcurve" smooth="yes"/>
      <point x="365.0" y="73.328358209"/>
      <point x="276.671641791" y="-14.0"/>
      <point x="211" y="-14" type="qcurve" smooth="yes"/>
      <point x="145.328358209" y="-14.0"/>
      <point x="59.0" y="73.328358209"/>
      <point x="59" y="139" type="qcurve" smooth="yes"/>
      <point x="59.0" y="203.179104478"/>
      <point x="145.328358209" y="291.0"/>
    </contour>
  </outline>
</glyph>
<glyph name="slash" format="1">
  <advance width="720.896"/>
  <unicode hex="002F"/>
  <outline>
    <contour>
      <point x="471" y="1505" type="line"/>
      <point x="705" y="1505" type="line"/>
      <point x="203" y="-195" type="line"/>
      <point x="-31" y="-195" type="line"/>
    </contour>
  </outline>
</glyph>
<glyph name="six" format="1">
  <advance width="987.136"/>
  <unicode hex="0036"/>
  <outline>
    <contour>
      <point x="592" y="956" type="qcurve" smooth="yes"/>
      <point x="742.0" y="956.0"/>
      <point x="948.0" y="725.582089552"/>
      <point x="948" y="492" type="qcurve" smooth="yes"/>
      <point x="948.0" y="242.746268657"/>
      <point x="704.447761194" y="-25.0"/>
      <point x="494" y="-25" type="qcurve" smooth="yes"/>
      <point x="284.298507463" y="-25.0"/>
      <point x="51.0" y="249.910447761"/>
      <point x="51" y="532" type="qcurve" smooth="yes"/>
      <point x="51.0" y="817.820895522"/>
      <point x="263.641791045" y="1278.73134328"/>
      <point x="442" y="1475" type="qcurve"/>
      <point x="797" y="1475" type="line"/>
      <point x="613.417910448" y="1312.31343284"/>
      <point x="378.059701493" y="964.552238806"/>
      <point x="340" y="825" type="qcurve"/>
      <point x="348" y="825" type="line"/>
      <point x="383.074626866" y="874.253731343"/>
      <point x="498.71641791" y="956.0"/>
    </contour>
    <contour>
      <point x="500" y="180" type="qcurve" smooth="yes"/>
      <point x="591.791044776" y="180.0"/>
      <point x="666.0" y="345.626865672"/>
      <point x="666" y="471" type="qcurve" smooth="yes"/>
      <point x="666.0" y="594.880597015"/>
      <point x="595.791044776" y="754.0"/>
      <point x="504" y="754" type="qcurve" smooth="yes"/>
      <point x="412.208955224" y="754.0"/>
      <point x="336.0" y="588.910447761"/>
      <point x="336" y="471" type="qcurve" smooth="yes"/>
      <point x="336.0" y="344.134328358"/>
      <point x="408.208955224" y="180.0"/>
    </contour>
  </outline>
</glyph>
<glyph name="seven" format="1">
  <advance width="913.408"/>
  <unicode hex="0037"/>
  <outline>
    <contour>
      <point x="881" y="1475" type="line"/>
      <point x="881" y="1309" type="line"/>
      <point x="723.537313433" y="1042.58208955"/>
      <point x="481.731343284" y="339.552238806"/>
      <point x="428" y="0" type="qcurve"/>
      <point x="139" y="0" type="line"/>
      <point x="191.23880597" y="302.985074627"/>
      <point x="434.537313433" y="985.23880597"/>
      <point x="592" y="1233" type="qcurve"/>
      <point x="31" y="1233" type="line"/>
      <point x="31" y="1475" type="line"/>
    </contour>
  </outline>
</glyph>
<glyph name="nine" format="1">
  <advance width="987.136"/>
  <unicode hex="0039"/>
  <outline>
    <contour>
      <point x="494" y="1499" type="qcurve" smooth="yes"/>
      <point x="702.955223881" y="1499.0"/>
      <point x="936.0" y="1224.8358209"/>
      <point x="936" y="942" type="qcurve" smooth="yes"/>
      <point x="936.0" y="656.179104478"/>
      <point x="723.358208955" y="195.52238806"/>
      <point x="545" y="0" type="qcurve"/>
      <point x="190" y="0" type="line"/>
      <point x="373.582089552" y="161.940298507"/>
      <point x="608.940298507" y="510.194029851"/>
      <point x="647" y="649" type="qcurve"/>
      <point x="639" y="649" type="line"/>
      <point x="603.925373134" y="600.492537313"/>
      <point x="488.28358209" y="518.0"/>
      <point x="395" y="518" type="qcurve" smooth="yes"/>
      <point x="245.746268657" y="518.0"/>
      <point x="39.0" y="749.417910448"/>
      <point x="39" y="983" type="qcurve" smooth="yes"/>
      <point x="39.0" y="1232.25373134"/>
      <point x="282.805970149" y="1499.0"/>
    </contour>
    <contour>
      <point x="483" y="721" type="qcurve" smooth="yes"/>
      <point x="574.791044776" y="721.0"/>
      <point x="651.0" y="886.089552239"/>
      <point x="651" y="1004" type="qcurve" smooth="yes"/>
      <point x="651.0" y="1130.86567164"/>
      <point x="578.791044776" y="1294.0"/>
      <point x="487" y="1294" type="qcurve" smooth="yes"/>
      <point x="395.955223881" y="1294.0"/>
      <point x="322.0" y="1128.62686567"/>
      <point x="322" y="1004" type="qcurve" smooth="yes"/>
      <point x="322.0" y="880.119402985"/>
      <point x="391.208955224" y="721.0"/>
    </contour>
  </outline>
</glyph>
<glyph name="colon" format="1">
  <advance width="448.512"/>
  <unicode hex="003A"/>
  <outline>
    <contour>
      <point x="225" y="291" type="qcurve" smooth="yes"/>
      <point x="289.179104478" y="291.0"/>
      <point x="377.0" y="203.179104478"/>
      <point x="377" y="139" type="qcurve" smooth="yes"/>
      <point x="377.0" y="73.328358209"/>
      <point x="289.179104478" y="-14.0"/>
      <point x="225" y="-14" type="qcurve" smooth="yes"/>
      <point x="159.328358209" y="-14.0"/>
      <point x="72.0" y="73.328358209"/>
      <point x="72" y="139" type="qcurve" smooth="yes"/>
      <point x="72.0" y="203.179104478"/>
      <point x="159.328358209" y="291.0"/>
    </contour>
    <contour>
      <point x="225" y="1102" type="qcurve" smooth="yes"/>
      <point x="289.179104478" y="1102.0"/>
      <point x="377.0" y="1014.17910448"/>
      <point x="377" y="950" type="qcurve" smooth="yes"/>
      <point x="377.0" y="884.328358209"/>
      <point x="289.179104478" y="797.0"/>
      <point x="225" y="797" type="qcurve" smooth="yes"/>
      <point x="159.328358209" y="797.0"/>
      <point x="72.0" y="884.328358209"/>
      <point x="72" y="950" type="qcurve" smooth="yes"/>
      <point x="72.0" y="1014.17910448"/>
      <point x="159.328358209" y="1102.0"/>
    </contour>
  </outline>
</glyph>
<glyph name="semicolon" format="1">
  <advance width="448.512"/>
  <unicode hex="003B"/>
  <outline>
    <contour>
      <point x="231" y="1102" type="qcurve" smooth="yes"/>
      <point x="296.671641791" y="1102.0"/>
      <point x="385.0" y="1014.17910448"/>
      <point x="385" y="950" type="qcurve" smooth="yes"/>
      <point x="385.0" y="884.328358209"/>
      <point x="296.671641791" y="797.0"/>
      <point x="231" y="797" type="qcurve" smooth="yes"/>
      <point x="165.328358209" y="797.0"/>
      <point x="80.0" y="884.328358209"/>
      <point x="80" y="950" type="qcurve" smooth="yes"/>
      <point x="80.0" y="1014.17910448"/>
      <point x="165.328358209" y="1102.0"/>
    </contour>
    <contour>
      <point x="102" y="297" type="line"/>
      <point x="375" y="297" type="line"/>
      <point x="176" y="-227" type="line"/>
      <point x="49" y="-227" type="line"/>
    </contour>
  </outline>
</glyph>
<glyph name="equal" format="1">
  <advance width="966.656"/>
  <unicode hex="003D"/>
  <outline>
    <contour>
      <point x="887" y="614" type="line"/>
      <point x="887" y="395" type="line"/>
      <point x="80" y="395" type="line"/>
      <point x="80" y="614" type="line"/>
    </contour>
    <contour>
      <point x="887" y="1096" type="line"/>
      <point x="887" y="874" type="line"/>
      <point x="80" y="874" type="line"/>
      <point x="80" y="1096" type="line"/>
    </contour>
  </outline>
</glyph>
<glyph name="at" format="1">
  <advance width="1597.44"/>
  <unicode hex="0040"/>
  <outline>
    <contour>
      <point x="825" y="1499" type="qcurve" smooth="yes"/>
      <point x="1115.29850746" y="1499.0"/>
      <point x="1511.0" y="1086.20895522"/>
      <point x="1511" y="678" type="qcurve" smooth="yes"/>
      <point x="1511.0" y="355.611940299"/>
      <point x="1276.47761194" y="51.0"/>
      <point x="1122" y="51" type="qcurve" smooth="yes"/>
      <point x="1015.28358209" y="51.0"/>
      <point x="867.492537313" y="166.582089552"/>
      <point x="866" y="283" type="qcurve"/>
      <point x="858" y="283" type="line"/>
      <point x="808.0" y="174.044776119"/>
      <point x="669.552238806" y="51.0"/>
      <point x="580" y="51" type="qcurve" smooth="yes"/>
      <point x="498.656716418" y="51.0"/>
      <point x="387.0" y="194.537313433"/>
      <point x="387" y="352" type="qcurve" smooth="yes"/>
      <point x="387.0" y="634.835820896"/>
      <point x="583.507462687" y="1063.0"/>
      <point x="735" y="1063" type="qcurve" smooth="yes"/>
      <point x="823.805970149" y="1063.0"/>
      <point x="912.835820896" y="942.776119403"/>
      <point x="930" y="848" type="qcurve"/>
      <point x="938" y="848" type="line"/>
      <point x="977" y="1063" type="line"/>
      <point x="1198" y="1020" type="line"/>
      <point x="1073" y="369" type="line" smooth="yes"/>
      <point x="1053.59701493" y="263.029850746"/>
      <point x="1116.35820896" y="154.0"/>
      <point x="1188" y="154" type="qcurve" smooth="yes"/>
      <point x="1287.25373134" y="154.0"/>
      <point x="1436.0" y="439.194029851"/>
      <point x="1436" y="678" type="qcurve" smooth="yes"/>
      <point x="1436.0" y="1026.50746269"/>
      <point x="1106.82089552" y="1427.0"/>
      <point x="821" y="1427" type="qcurve" smooth="yes"/>
      <point x="533.686567164" y="1427.0"/>
      <point x="147.0" y="947.985074627"/>
      <point x="147" y="545" type="qcurve" smooth="yes"/>
      <point x="147.0" y="129.328358209"/>
      <point x="501.029850746" y="-319.0"/>
      <point x="807" y="-319" type="qcurve" smooth="yes"/>
      <point x="957.0" y="-319.0"/>
      <point x="1179.28358209" y="-240.119402985"/>
      <point x="1286" y="-164" type="qcurve"/>
      <point x="1325" y="-229" type="line"/>
      <point x="1210.07462687" y="-307.358208955"/>
      <point x="963.447761194" y="-393.0"/>
      <point x="803" y="-393" type="qcurve" smooth="yes"/>
      <point x="466.432835821" y="-393.0"/>
      <point x="68.0" y="90.7611940299"/>
      <point x="68" y="543" type="qcurve" smooth="yes"/>
      <point x="68.0" y="990.76119403"/>
      <point x="508.582089552" y="1499.0"/>
    </contour>
    <contour>
      <point x="696" y="215" type="qcurve" smooth="yes"/>
      <point x="768.388059701" y="215.0"/>
      <point x="899.507462687" y="512.686567164"/>
      <point x="901" y="700" type="qcurve" smooth="yes"/>
      <point x="902.492537313" y="767.910447761"/>
      <point x="856.014925373" y="879.0"/>
      <point x="809" y="879" type="qcurve" smooth="yes"/>
      <point x="731.388059701" y="879.0"/>
      <point x="614.0" y="568.52238806"/>
      <point x="614" y="373" type="qcurve" smooth="yes"/>
      <point x="614.0" y="302.850746269"/>
      <point x="653.462686567" y="215.0"/>
    </contour>
  </outline>
</glyph>
<glyph name="A" format="1">
  <advance width="1134.592"/>
  <unicode hex="0041"/>
  <outline>
    <contour>
      <point x="764" y="1481" type="line"/>
      <point x="1114" y="0" type="line"/>
      <point x="811" y="0" type="line"/>
      <point x="741" y="334" type="line"/>
      <point x="379" y="334" type="line"/>
      <point x="311" y="0" type="line"/>
      <point x="20" y="0" type="line"/>
      <point x="371" y="1481" type="line"/>
    </contour>
    <contour>
      <point x="414" y="541" type="line"/>
      <point x="709" y="541" type="line"/>
      <point x="565" y="1229" type="line"/>
      <point x="557" y="1229" type="line"/>
    </contour>
  </outline>
</glyph>
<glyph name="B" format="1">
  <advance width="997.376"/>
  <unicode hex="0042"/>
  <outline>
    <contour>
      <point x="702" y="782" type="line"/>
      <point x="822.895522388" y="742.447761194"/>
      <point x="965.0" y="568.955223881"/>
      <point x="965" y="410" type="qcurve" smooth="yes"/>
      <point x="965.0" y="212.23880597"/>
      <point x="713.402985075" y="0.0"/>
      <point x="494" y="0" type="qcurve" smooth="yes"/>
      <point x="86" y="0" type="line"/>
      <point x="86" y="1475" type="line"/>
      <point x="494" y="1475" type="line" smooth="yes"/>
      <point x="692.507462687" y="1475.0"/>
      <point x="922.0" y="1284.3880597"/>
      <point x="922" y="1112" type="qcurve" smooth="yes"/>
      <point x="922.0" y="976.179104478"/>
      <point x="786.328358209" y="824.582089552"/>
      <point x="702" y="791" type="qcurve"/>
    </contour>
    <contour>
      <point x="459" y="195" type="line" smooth="yes"/>
      <point x="564.223880597" y="195.0"/>
      <point x="684.0" y="312.626865672"/>
      <point x="684" y="438" type="qcurve" smooth="yes"/>
      <point x="684.0" y="561.880597015"/>
      <point x="570.194029851" y="688.0"/>
      <point x="459" y="688" type="qcurve" smooth="yes"/>
      <point x="371" y="688" type="line"/>
      <point x="371" y="195" type="line"/>
    </contour>
    <contour>
      <point x="461" y="868" type="line" smooth="yes"/>
      <point x="546.074626866" y="868.0"/>
      <point x="647.0" y="973.776119403"/>
      <point x="647" y="1079" type="qcurve" smooth="yes"/>
      <point x="647.0" y="1178.25373134"/>
      <point x="550.313432836" y="1280.0"/>
      <point x="463" y="1280" type="qcurve" smooth="yes"/>
      <point x="371" y="1280" type="line"/>
      <point x="371" y="868" type="line"/>
    </contour>
  </outline>
</glyph>
<glyph name="C" format="1">
  <advance width="976.896"/>
  <unicode hex="0043"/>
  <outline>
    <contour>
      <point x="672" y="526" type="qcurve"/>
      <point x="942" y="467" type="line"/>
      <point x="912.895522388" y="223.71641791"/>
      <point x="706.0" y="-25.0"/>
      <point x="506" y="-25" type="qcurve" smooth="yes"/>
      <point x="307.492537313" y="-25.0"/>
      <point x="57.0" y="298.597014925"/>
      <point x="57" y="618" type="qcurve" smooth="yes"/>
      <point x="57" y="854" type="line" smooth="yes"/>
      <point x="57.0" y="1173.40298507"/>
      <point x="308.507462687" y="1499.0"/>
      <point x="510" y="1499" type="qcurve" smooth="yes"/>
      <point x="715.970149254" y="1499.0"/>
      <point x="909.880597015" y="1238.65671642"/>
      <point x="936" y="1020" type="qcurve"/>
      <point x="659" y="954" type="line"/>
      <point x="645.567164179" y="1127.13432836"/>
      <point x="578.656716418" y="1276.0"/>
      <point x="510" y="1276" type="qcurve" smooth="yes"/>
      <point x="424.179104478" y="1276.0"/>
      <point x="354.0" y="1064.88059701"/>
      <point x="354" y="891" type="qcurve" smooth="yes"/>
      <point x="354" y="586" type="line" smooth="yes"/>
      <point x="354.0" y="402.417910448"/>
      <point x="432.895522388" y="199.0"/>
      <point x="512" y="199" type="qcurve" smooth="yes"/>
      <point x="580.656716418" y="199.0"/>
      <point x="653.343283582" y="347.641791045"/>
    </contour>
  </outline>
</glyph>
<glyph name="D" format="1">
  <advance width="1036.288"/>
  <unicode hex="0044"/>
  <outline>
    <contour>
      <point x="981" y="842" type="qcurve" smooth="yes"/>
      <point x="981" y="633" type="line" smooth="yes"/>
      <point x="981.0" y="316.582089552"/>
      <point x="708.611940299" y="0.0"/>
      <point x="481" y="0" type="qcurve" smooth="yes"/>
      <point x="86" y="0" type="line"/>
      <point x="86" y="1475" type="line"/>
      <point x="483" y="1475" type="line" smooth="yes"/>
      <point x="710.611940299" y="1475.0"/>
      <point x="981.0" y="1158.41791045"/>
    </contour>
    <contour>
      <point x="465" y="217" type="line" smooth="yes"/>
      <point x="573.208955224" y="217.0"/>
      <point x="684.0" y="392.104477612"/>
      <point x="684" y="563" type="qcurve" smooth="yes"/>
      <point x="684" y="909" type="line" smooth="yes"/>
      <point x="684.0" y="1082.13432836"/>
      <point x="572.701492537" y="1257.0"/>
      <point x="463" y="1257" type="qcurve" smooth="yes"/>
      <point x="381" y="1257" type="line"/>
      <point x="381" y="217" type="line"/>
    </contour>
  </outline>
</glyph>
<glyph name="E" format="1">
  <advance width="882.688"/>
  <unicode hex="0045"/>
  <outline>
    <contour>
      <point x="842" y="236" type="line"/>
      <point x="842" y="0" type="line"/>
      <point x="86" y="0" type="line"/>
      <point x="86" y="1475" type="line"/>
      <point x="825" y="1475" type="line"/>
      <point x="825" y="1239" type="line"/>
      <point x="375" y="1239" type="line"/>
      <point x="375" y="874" type="line"/>
      <point x="709" y="874" type="line"/>
      <point x="709" y="651" type="line"/>
      <point x="375" y="651" type="line"/>
      <point x="375" y="236" type="line"/>
    </contour>
  </outline>
</glyph>
<glyph name="G" format="1">
  <advance width="1042.432"/>
  <unicode hex="0047"/>
  <outline>
    <contour>
      <point x="975" y="696" type="line"/>
      <point x="975" y="-2" type="line"/>
      <point x="874" y="-2" type="line"/>
      <point x="840" y="303" type="line"/>
      <point x="831" y="303" type="line"/>
      <point x="791.447761194" y="159.71641791"/>
      <point x="630.014925373" y="-25.0"/>
      <point x="483" y="-25" type="qcurve" smooth="yes"/>
      <point x="290.462686567" y="-25.0"/>
      <point x="57.0" y="311.059701493"/>
      <point x="57" y="623" type="qcurve" smooth="yes"/>
      <point x="57" y="854" type="line" smooth="yes"/>
      <point x="57.0" y="1173.40298507"/>
      <point x="314.507462687" y="1499.0"/>
      <point x="516" y="1499" type="qcurve" smooth="yes"/>
      <point x="727.194029851" y="1499.0"/>
      <point x="921.880597015" y="1246.17910448"/>
      <point x="948" y="1032" type="qcurve"/>
      <point x="674" y="965" type="line"/>
      <point x="658.328358209" y="1129.92537313"/>
      <point x="587.641791045" y="1276.0"/>
      <point x="516" y="1276" type="qcurve" smooth="yes"/>
      <point x="430.179104478" y="1276.0"/>
      <point x="354.0" y="1064.88059701"/>
      <point x="354" y="891" type="qcurve" smooth="yes"/>
      <point x="354" y="590" type="line" smooth="yes"/>
      <point x="354.0" y="401.940298507"/>
      <point x="438.417910448" y="199.0"/>
      <point x="522" y="199" type="qcurve" smooth="yes"/>
      <point x="603.343283582" y="199.0"/>
      <point x="684.537313433" y="381.28358209"/>
      <point x="692" y="588" type="qcurve"/>
      <point x="530" y="588" type="line"/>
      <point x="530" y="696" type="line"/>
    </contour>
  </outline>
</glyph>
<glyph name="J" format="1">
  <advance width="903.168"/>
  <unicode hex="004A"/>
  <outline>
    <contour>
      <point x="825" y="1475" type="line"/>
      <point x="825" y="432" type="line" smooth="yes"/>
      <point x="825.0" y="184.23880597"/>
      <point x="597.552238806" y="-25.0"/>
      <point x="408" y="-25" type="qcurve" smooth="yes"/>
      <point x="222.925373134" y="-25.0"/>
      <point x="20.7611940299" y="203.462686567"/>
      <point x="23" y="446" type="qcurve"/>
      <point x="289" y="506" type="line"/>
      <point x="290.492537313" y="339.582089552"/>
      <point x="349.820895522" y="201.0"/>
      <point x="414" y="201" type="qcurve" smooth="yes"/>
      <point x="473.701492537" y="201.0"/>
      <point x="528.0" y="307.104477612"/>
      <point x="528" y="428" type="qcurve" smooth="yes"/>
      <point x="528" y="1475" type="line"/>
    </contour>
  </outline>
</glyph>
<glyph name="K" format="1">
  <advance width="1064.96"/>
  <unicode hex="004B"/>
  <outline>
    <contour>
      <point x="700" y="799" type="line"/>
      <point x="1069" y="0" type="line"/>
      <point x="743" y="0" type="line"/>
      <point x="408" y="782" type="line"/>
      <point x="408" y="786" type="line"/>
      <point x="733" y="1475" type="line"/>
      <point x="1044" y="1475" type="line"/>
    </contour>
    <contour>
      <point x="381" y="1475" type="line"/>
      <point x="381" y="0" type="line"/>
      <point x="86" y="0" type="line"/>
      <point x="86" y="1475" type="line"/>
    </contour>
  </outline>
</glyph>
<glyph name="L" format="1">
  <advance width="829.44"/>
  <unicode hex="004C"/>
  <outline>
    <contour>
      <point x="807" y="242" type="line"/>
      <point x="807" y="0" type="line"/>
      <point x="86" y="0" type="line"/>
      <point x="86" y="1475" type="line"/>
      <point x="381" y="1475" type="line"/>
      <point x="381" y="242" type="line"/>
    </contour>
  </outline>
</glyph>
<glyph name="M" format="1">
  <advance width="1447.936"/>
  <unicode hex="004D"/>
  <outline>
    <contour>
      <point x="1362" y="1475" type="line"/>
      <point x="1362" y="0" type="line"/>
      <point x="1090" y="0" type="line"/>
      <point x="1090" y="1133" type="line"/>
      <point x="1079" y="1133" type="line"/>
      <point x="862" y="0" type="line"/>
      <point x="567" y="0" type="line"/>
      <point x="348" y="1133" type="line"/>
      <point x="338" y="1133" type="line"/>
      <point x="338" y="0" type="line"/>
      <point x="86" y="0" type="line"/>
      <point x="86" y="1475" type="line"/>
      <point x="512" y="1475" type="line"/>
      <point x="723" y="375" type="line"/>
      <point x="731" y="375" type="line"/>
      <point x="940" y="1475" type="line"/>
    </contour>
  </outline>
</glyph>
<glyph name="N" format="1">
  <advance width="1052.672"/>
  <unicode hex="004E"/>
  <outline>
    <contour>
      <point x="969" y="1475" type="line"/>
      <point x="969" y="0" type="line"/>
      <point x="707" y="0" type="line"/>
      <point x="332" y="926" type="line"/>
      <point x="326" y="926" type="line"/>
      <point x="326" y="0" type="line"/>
      <point x="86" y="0" type="line"/>
      <point x="86" y="1475" type="line"/>
      <point x="369" y="1475" type="line"/>
      <point x="721" y="604" type="line"/>
      <point x="729" y="604" type="line"/>
      <point x="729" y="1475" type="line"/>
    </contour>
  </outline>
</glyph>
<glyph name="O" format="1">
  <advance width="1046.528"/>
  <unicode hex="004F"/>
  <outline>
    <contour>
      <point x="989" y="856" type="qcurve" smooth="yes"/>
      <point x="989" y="621" type="line" smooth="yes"/>
      <point x="989.0" y="301.597014925"/>
      <point x="732.208955224" y="-25.0"/>
      <point x="524" y="-25" type="qcurve" smooth="yes"/>
      <point x="315.044776119" y="-25.0"/>
      <point x="57.0" y="298.597014925"/>
      <point x="57" y="618" type="qcurve" smooth="yes"/>
      <point x="57" y="854" type="line" smooth="yes"/>
      <point x="57.0" y="1173.40298507"/>
      <point x="315.044776119" y="1499.0"/>
      <point x="524" y="1499" type="qcurve" smooth="yes"/>
      <point x="732.208955224" y="1499.0"/>
      <point x="989.0" y="1175.40298507"/>
    </contour>
    <contour>
      <point x="524" y="193" type="qcurve" smooth="yes"/>
      <point x="614.298507463" y="193.0"/>
      <point x="692.0" y="388.044776119"/>
      <point x="692" y="547" type="qcurve" smooth="yes"/>
      <point x="692" y="928" type="line" smooth="yes"/>
      <point x="692.0" y="1085.46268657"/>
      <point x="614.298507463" y="1282.0"/>
      <point x="524" y="1282" type="qcurve" smooth="yes"/>
      <point x="432.208955224" y="1282.0"/>
      <point x="354.0" y="1086.95522388"/>
      <point x="354" y="928" type="qcurve" smooth="yes"/>
      <point x="354" y="547" type="line" smooth="yes"/>
      <point x="354.0" y="388.044776119"/>
      <point x="432.208955224" y="193.0"/>
    </contour>
  </outline>
</glyph>
<glyph name="Q" format="1">
  <advance width="1046.528"/>
  <unicode hex="0051"/>
  <outline>
    <contour>
      <point x="1051" y="-66" type="qcurve"/>
      <point x="1051" y="-233" type="line"/>
      <point x="1033.8358209" y="-239.71641791"/>
      <point x="992.880597015" y="-244.0"/>
      <point x="969" y="-244" type="qcurve" smooth="yes"/>
      <point x="890.641791045" y="-244.0"/>
      <point x="786.28358209" y="-180.328358209"/>
      <point x="743" y="-96" type="qcurve" smooth="yes"/>
      <point x="690" y="8" type="line"/>
      <point x="651.940298507" y="-8.41791044776"/>
      <point x="568.776119403" y="-25.0"/>
      <point x="524" y="-25" type="qcurve" smooth="yes"/>
      <point x="315.044776119" y="-25.0"/>
      <point x="57.0" y="298.597014925"/>
      <point x="57" y="618" type="qcurve" smooth="yes"/>
      <point x="57" y="854" type="line" smooth="yes"/>
      <point x="57.0" y="1173.40298507"/>
      <point x="315.044776119" y="1499.0"/>
      <point x="524" y="1499" type="qcurve" smooth="yes"/>
      <point x="732.208955224" y="1499.0"/>
      <point x="989.0" y="1175.40298507"/>
      <point x="989" y="856" type="qcurve" smooth="yes"/>
      <point x="989" y="621" type="line" smooth="yes"/>
      <point x="989.0" y="435.925373134"/>
      <point x="898.850746269" y="171.850746269"/>
      <point x="819" y="92" type="qcurve"/>
      <point x="883" y="-4" type="line" smooth="yes"/>
      <point x="906.880597015" y="-42.0597014925"/>
      <point x="953.925373134" y="-76.0"/>
      <point x="989" y="-76" type="qcurve" smooth="yes"/>
      <point x="1003.17910448" y="-76.0"/>
      <point x="1033.8358209" y="-70.4776119403"/>
    </contour>
    <contour>
      <point x="676" y="291" type="line"/>
      <point x="687.940298507" y="320.104477612"/>
      <point x="705.0" y="438.268656716"/>
      <point x="705" y="492" type="qcurve" smooth="yes"/>
      <point x="705" y="922" type="line" smooth="yes"/>
      <point x="705.0" y="1083.94029851"/>
      <point x="621.28358209" y="1282.0"/>
      <point x="528" y="1282" type="qcurve" smooth="yes"/>
      <point x="436.955223881" y="1282.0"/>
      <point x="354.0" y="1084.44776119"/>
      <point x="354" y="924" type="qcurve" smooth="yes"/>
      <point x="354" y="543" type="line" smooth="yes"/>
      <point x="354.0" y="381.059701493"/>
      <point x="436.955223881" y="180.0"/>
      <point x="528" y="180" type="qcurve" smooth="yes"/>
      <point x="549.641791045" y="180.0"/>
      <point x="587.582089552" y="191.805970149"/>
      <point x="604" y="203" type="qcurve"/>
      <point x="473" y="449" type="line"/>
      <point x="559" y="500" type="line"/>
    </contour>
  </outline>
</glyph>
<glyph name="S" format="1">
  <advance width="970.752"/>
  <unicode hex="0053"/>
  <outline>
    <contour>
      <point x="565" y="881" type="qcurve" smooth="yes"/>
      <point x="773.208955224" y="796.671641791"/>
      <point x="928.0" y="578.388059701"/>
      <point x="928" y="406" type="qcurve" smooth="yes"/>
      <point x="928.0" y="202.268656716"/>
      <point x="684.567164179" y="-20.0"/>
      <point x="498" y="-20" type="qcurve" smooth="yes"/>
      <point x="339.044776119" y="-20.0"/>
      <point x="122.850746269" y="117.253731343"/>
      <point x="43" y="268" type="qcurve"/>
      <point x="236" y="428" type="line"/>
      <point x="294.955223881" y="313.074626866"/>
      <point x="428.149253731" y="211.0"/>
      <point x="508" y="211" type="qcurve" smooth="yes"/>
      <point x="576.656716418" y="211.0"/>
      <point x="662.0" y="300.134328358"/>
      <point x="662" y="377" type="qcurve" smooth="yes"/>
      <point x="662.0" y="454.611940299"/>
      <point x="554.328358209" y="562.029850746"/>
      <point x="420" y="618" type="qcurve" smooth="yes"/>
      <point x="228.955223881" y="697.850746269"/>
      <point x="72.0" y="908.641791045"/>
      <point x="72" y="1087" type="qcurve" smooth="yes"/>
      <point x="72.0" y="1257.14925373"/>
      <point x="286.940298507" y="1495.0"/>
      <point x="475" y="1495" type="qcurve" smooth="yes"/>
      <point x="630.970149254" y="1495.0"/>
      <point x="828.850746269" y="1363.86567164"/>
      <point x="899" y="1237" type="qcurve"/>
      <point x="707" y="1075" type="line"/>
      <point x="648.791044776" y="1177.23880597"/>
      <point x="539.149253731" y="1264.0"/>
      <point x="469" y="1264" type="qcurve" smooth="yes"/>
      <point x="401.835820896" y="1264.0"/>
      <point x="332.0" y="1172.71641791"/>
      <point x="332" y="1116" type="qcurve" smooth="yes"/>
      <point x="332.0" y="1042.86567164"/>
      <point x="423.208955224" y="938.462686567"/>
    </contour>
  </outline>
</glyph>
<glyph name="T" format="1">
  <advance width="972.8"/>
  <unicode hex="0054"/>
  <outline>
    <contour>
      <point x="942" y="1475" type="line"/>
      <point x="942" y="1237" type="line"/>
      <point x="633" y="1237" type="line"/>
      <point x="633" y="0" type="line"/>
      <point x="342" y="0" type="line"/>
      <point x="342" y="1237" type="line"/>
      <point x="33" y="1237" type="line"/>
      <point x="33" y="1475" type="line"/>
    </contour>
  </outline>
</glyph>
<glyph name="U" format="1">
  <advance width="1026.048"/>
  <unicode hex="0055"/>
  <outline>
    <contour>
      <point x="948" y="1475" type="line"/>
      <point x="948" y="471" type="line" smooth="yes"/>
      <point x="948.0" y="208.313432836"/>
      <point x="718.47761194" y="-25.0"/>
      <point x="514" y="-25" type="qcurve" smooth="yes"/>
      <point x="309.52238806" y="-25.0"/>
      <point x="78.0" y="212.820895522"/>
      <point x="78" y="477" type="qcurve" smooth="yes"/>
      <point x="78" y="1475" type="line"/>
      <point x="375" y="1475" type="line"/>
      <point x="375" y="438" type="line" smooth="yes"/>
      <point x="375.0" y="314.119402985"/>
      <point x="451.850746269" y="199.0"/>
      <point x="522" y="199" type="qcurve" smooth="yes"/>
      <point x="590.656716418" y="199.0"/>
      <point x="668.0" y="311.611940299"/>
      <point x="668" y="434" type="qcurve" smooth="yes"/>
      <point x="668" y="1475" type="line"/>
    </contour>
  </outline>
</glyph>
<glyph name="X" format="1">
  <advance width="1056.768"/>
  <unicode hex="0058"/>
  <outline>
    <contour>
      <point x="705" y="766" type="line"/>
      <point x="1032" y="0" type="line"/>
      <point x="707" y="0" type="line"/>
      <point x="512" y="514" type="line"/>
      <point x="303" y="0" type="line"/>
      <point x="25" y="0" type="line"/>
      <point x="354" y="754" type="line"/>
      <point x="47" y="1475" type="line"/>
      <point x="373" y="1475" type="line"/>
      <point x="547" y="1004" type="line"/>
      <point x="733" y="1475" type="line"/>
      <point x="1012" y="1475" type="line"/>
    </contour>
  </outline>
</glyph>
<glyph name="Z" format="1">
  <advance width="913.408"/>
  <unicode hex="005A"/>
  <outline>
    <contour>
      <point x="877" y="236" type="line"/>
      <point x="877" y="0" type="line"/>
      <point x="39" y="0" type="line"/>
      <point x="39" y="205" type="line"/>
      <point x="549" y="1239" type="line"/>
      <point x="66" y="1239" type="line"/>
      <point x="66" y="1475" type="line"/>
      <point x="877" y="1475" type="line"/>
      <point x="877" y="1270" type="line"/>
      <point x="367" y="236" type="line"/>
    </contour>
  </outline>
</glyph>
<glyph name="bracketleft" format="1">
  <advance width="645.12"/>
  <unicode hex="005B"/>
  <outline>
    <contour>
      <point x="608" y="-41" type="line"/>
      <point x="608" y="-164" type="line"/>
      <point x="104" y="-184" type="line"/>
      <point x="104" y="1495" type="line"/>
      <point x="608" y="1475" type="line"/>
      <point x="608" y="1352" type="line"/>
      <point x="340" y="1364" type="line"/>
      <point x="340" y="-53" type="line"/>
    </contour>
  </outline>
</glyph>
<glyph name="backslash" format="1">
  <advance width="720.896"/>
  <unicode hex="005C"/>
  <outline>
    <contour>
      <point x="250" y="1505" type="line"/>
      <point x="752" y="-195" type="line"/>
      <point x="518" y="-195" type="line"/>
      <point x="16" y="1505" type="line"/>
    </contour>
  </outline>
</glyph>
<glyph name="bracketright" format="1">
  <advance width="645.12"/>
  <unicode hex="005D"/>
  <outline>
    <contour>
      <point x="543" y="1495" type="line"/>
      <point x="543" y="-184" type="line"/>
      <point x="37" y="-164" type="line"/>
      <point x="37" y="-41" type="line"/>
      <point x="305" y="-53" type="line"/>
      <point x="305" y="1364" type="line"/>
      <point x="37" y="1352" type="line"/>
      <point x="37" y="1475" type="line"/>
    </contour>
  </outline>
</glyph>
<glyph name="underscore" format="1">
  <advance width="825.344"/>
  <unicode hex="005F"/>
  <outline>
    <contour>
      <point x="831" y="-88" type="line"/>
      <point x="831" y="-207" type="line"/>
      <point x="-6" y="-207" type="line"/>
      <point x="-6" y="-88" type="line"/>
    </contour>
  </outline>
</glyph>
<glyph name="grave" format="1">
  <advance width="813.056"/>
  <unicode hex="0060"/>
  <outline>
    <contour>
      <point x="467" y="1458" type="line"/>
      <point x="596" y="1188" type="line"/>
      <point x="412" y="1188" type="line"/>
      <point x="164" y="1458" type="line"/>
    </contour>
  </outline>
</glyph>
<glyph name="f" format="1">
  <advance width="620.544"/>
  <unicode hex="0066"/>
  <outline>
    <contour>
      <point x="647" y="1532" type="qcurve"/>
      <point x="647" y="1343" type="line"/>
      <point x="619.388059701" y="1355.68656716"/>
      <point x="573.089552239" y="1368.0"/>
      <point x="541" y="1368" type="qcurve" smooth="yes"/>
      <point x="488.76119403" y="1368.0"/>
      <point x="430.0" y="1305.14925373"/>
      <point x="430" y="1235" type="qcurve" smooth="yes"/>
      <point x="430" y="1083" type="line"/>
      <point x="610" y="1083" type="line"/>
      <point x="610" y="899" type="line"/>
      <point x="430" y="899" type="line"/>
      <point x="430" y="0" type="line"/>
      <point x="156" y="0" type="line"/>
      <point x="156" y="899" type="line"/>
      <point x="12" y="899" type="line"/>
      <point x="12" y="1083" type="line"/>
      <point x="156" y="1083" type="line"/>
      <point x="156" y="1257" type="line" smooth="yes"/>
      <point x="156.0" y="1404.01492537"/>
      <point x="310.462686567" y="1554.0"/>
      <point x="453" y="1554" type="qcurve" smooth="yes"/>
      <point x="523.149253731" y="1554.0"/>
      <point x="605.955223881" y="1543.94029851"/>
    </contour>
  </outline>
</glyph>
<glyph name="g" format="1">
  <advance width="917.504"/>
  <unicode hex="0067"/>
  <outline>
    <contour>
      <point x="844" y="1061" type="line"/>
      <point x="844" y="33" type="line" smooth="yes"/>
      <point x="844.0" y="-196.104477612"/>
      <point x="621.656716418" y="-391.0"/>
      <point x="403" y="-391" type="qcurve" smooth="yes"/>
      <point x="310.462686567" y="-391.0"/>
      <point x="171.0" y="-360.656716418"/>
      <point x="121" y="-342" type="qcurve"/>
      <point x="121" y="-156" type="line"/>
      <point x="178" y="-156" type="line"/>
      <point x="205.611940299" y="-200.029850746"/>
      <point x="293.626865672" y="-248.0"/>
      <point x="369" y="-248" type="qcurve" smooth="yes"/>
      <point x="462.28358209" y="-248.0"/>
      <point x="563.0" y="-136.328358209"/>
      <point x="563" y="-2" type="qcurve" smooth="yes"/>
      <point x="563" y="184" type="line"/>
      <point x="557" y="184" type="line"/>
      <point x="511.47761194" y="97.4328358209"/>
      <point x="396.343283582" y="-16.0"/>
      <point x="315" y="-16" type="qcurve" smooth="yes"/>
      <point x="205.298507463" y="-16.0"/>
      <point x="47.0" y="233.104477612"/>
      <point x="47" y="504" type="qcurve" smooth="yes"/>
      <point x="47" y="586" type="line" smooth="yes"/>
      <point x="47.0" y="854.656716418"/>
      <point x="208.791044776" y="1106.0"/>
      <point x="317" y="1106" type="qcurve" smooth="yes"/>
      <point x="396.850746269" y="1106.0"/>
      <point x="511.47761194" y="997.835820896"/>
      <point x="557" y="915" type="qcurve"/>
      <point x="563" y="915" type="line"/>
      <point x="563" y="1108" type="line"/>
    </contour>
    <contour>
      <point x="442" y="176" type="qcurve" smooth="yes"/>
      <point x="498.71641791" y="176.0"/>
      <point x="573.0" y="361.417910448"/>
      <point x="573" y="545" type="qcurve" smooth="yes"/>
      <point x="573.0" y="728.582089552"/>
      <point x="498.208955224" y="913.0"/>
      <point x="440" y="913" type="qcurve" smooth="yes"/>
      <point x="387.014925373" y="913.0"/>
      <point x="324.0" y="745.0"/>
      <point x="324" y="545" type="qcurve" smooth="yes"/>
      <point x="324.0" y="341.268656716"/>
      <point x="389.014925373" y="176.0"/>
    </contour>
  </outline>
</glyph>
<glyph name="k" format="1">
  <advance width="909.312"/>
  <unicode hex="006B"/>
  <outline>
    <contour>
      <point x="643" y="557" type="line"/>
      <point x="909" y="0" type="line"/>
      <point x="612" y="0" type="line"/>
      <point x="373" y="547" type="line"/>
      <point x="373" y="553" type="line"/>
      <point x="606" y="1090" type="line"/>
      <point x="897" y="1090" type="line"/>
    </contour>
    <contour>
      <point x="354" y="1550" type="line"/>
      <point x="354" y="0" type="line"/>
      <point x="74" y="0" type="line"/>
      <point x="74" y="1503" type="line"/>
    </contour>
  </outline>
</glyph>
<glyph name="m" format="1">
  <advance width="1363.968"/>
  <unicode hex="006D"/>
  <outline>
    <contour>
      <point x="1296" y="852" type="qcurve" smooth="yes"/>
      <point x="1296" y="0" type="line"/>
      <point x="1020" y="0" type="line"/>
      <point x="1020" y="786" type="line" smooth="yes"/>
      <point x="1020.0" y="838.23880597"/>
      <point x="984.059701493" y="891.0"/>
      <point x="946" y="891" type="qcurve" smooth="yes"/>
      <point x="915.402985075" y="891.0"/>
      <point x="853.597014925" y="844.014925373"/>
      <point x="823" y="797" type="qcurve"/>
      <point x="823" y="0" type="line"/>
      <point x="547" y="0" type="line"/>
      <point x="547" y="786" type="line" smooth="yes"/>
      <point x="547.0" y="838.23880597"/>
      <point x="511.059701493" y="891.0"/>
      <point x="473" y="891" type="qcurve" smooth="yes"/>
      <point x="442.402985075" y="891.0"/>
      <point x="380.597014925" y="844.014925373"/>
      <point x="350" y="797" type="qcurve"/>
      <point x="350" y="0" type="line"/>
      <point x="74" y="0" type="line"/>
      <point x="74" y="1061" type="line"/>
      <point x="350" y="1108" type="line"/>
      <point x="350" y="895" type="line"/>
      <point x="356" y="895" type="line"/>
      <point x="426.895522388" y="998.731343284"/>
      <point x="553.149253731" y="1104.0"/>
      <point x="633" y="1104" type="qcurve" smooth="yes"/>
      <point x="716.582089552" y="1104.0"/>
      <point x="819.0" y="996.76119403"/>
      <point x="819" y="899" type="qcurve" smooth="yes"/>
      <point x="819" y="895" type="line"/>
      <point x="829" y="895" type="line"/>
      <point x="901.388059701" y="998.731343284"/>
      <point x="1026.14925373" y="1104.0"/>
      <point x="1106" y="1104" type="qcurve" smooth="yes"/>
      <point x="1197.79104478" y="1104.0"/>
      <point x="1296.0" y="974.388059701"/>
    </contour>
  </outline>
</glyph>
<glyph name="r" format="1">
  <advance width="698.368"/>
  <unicode hex="0072"/>
  <outline>
    <contour>
      <point x="686" y="1108" type="qcurve"/>
      <point x="686" y="807" type="line"/>
      <point x="576.298507463" y="788.343283582"/>
      <point x="415.194029851" y="683.880597015"/>
      <point x="354" y="610" type="qcurve"/>
      <point x="354" y="0" type="line"/>
      <point x="74" y="0" type="line"/>
      <point x="74" y="1061" type="line"/>
      <point x="354" y="1108" type="line"/>
      <point x="354" y="735" type="line"/>
      <point x="362" y="735" type="line"/>
      <point x="444.835820896" y="917.089552239"/>
      <point x="600.179104478" y="1094.56716418"/>
    </contour>
  </outline>
</glyph>
<glyph name="t" format="1">
  <advance width="673.792"/>
  <unicode hex="0074"/>
  <outline>
    <contour>
      <point x="639" y="242" type="qcurve"/>
      <point x="639" y="53" type="line"/>
      <point x="576.313432836" y="17.9253731343"/>
      <point x="453.179104478" y="-16.0"/>
      <point x="389" y="-16" type="qcurve" smooth="yes"/>
      <point x="266.611940299" y="-16.0"/>
      <point x="147.0" y="100.641791045"/>
      <point x="147" y="229" type="qcurve" smooth="yes"/>
      <point x="147" y="899" type="line"/>
      <point x="12" y="899" type="line"/>
      <point x="12" y="1083" type="line"/>
      <point x="147" y="1083" type="line"/>
      <point x="147" y="1430" type="line"/>
      <point x="420" y="1493" type="line"/>
      <point x="420" y="1083" type="line"/>
      <point x="616" y="1083" type="line"/>
      <point x="616" y="899" type="line"/>
      <point x="420" y="899" type="line"/>
      <point x="420" y="293" type="line" smooth="yes"/>
      <point x="420.0" y="243.746268657"/>
      <point x="469.432835821" y="199.0"/>
      <point x="506" y="199" type="qcurve" smooth="yes"/>
      <point x="536.597014925" y="199.0"/>
      <point x="597.955223881" y="218.865671642"/>
    </contour>
  </outline>
</glyph>
<glyph name="v" format="1">
  <advance width="876.544"/>
  <unicode hex="0076"/>
  <outline>
    <contour>
      <point x="592" y="1090" type="line"/>
      <point x="858" y="1090" type="line"/>
      <point x="604" y="-10" type="line"/>
      <point x="270" y="-10" type="line"/>
      <point x="18" y="1090" type="line"/>
      <point x="299" y="1090" type="line"/>
      <point x="446" y="270" type="line"/>
    </contour>
  </outline>
</glyph>
<glyph name="w" format="1">
  <advance width="1372.16"/>
  <unicode hex="0077"/>
  <outline>
    <contour>
      <point x="1090" y="1090" type="line"/>
      <point x="1352" y="1090" type="line"/>
      <point x="1128" y="-8" type="line"/>
      <point x="819" y="-8" type="line"/>
      <point x="690" y="717" type="line"/>
      <point x="557" y="-8" type="line"/>
      <point x="246" y="-8" type="line"/>
      <point x="20" y="1090" type="line"/>
      <point x="295" y="1090" type="line"/>
      <point x="420" y="330" type="line"/>
      <point x="547" y="1090" type="line"/>
      <point x="840" y="1090" type="line"/>
      <point x="967" y="330" type="line"/>
    </contour>
  </outline>
</glyph>
<glyph name="x" format="1">
  <advance width="899.072"/>
  <unicode hex="0078"/>
  <outline>
    <contour>
      <point x="610" y="559" type="line"/>
      <point x="881" y="0" type="line"/>
      <point x="582" y="0" type="line"/>
      <point x="432" y="336" type="line"/>
      <point x="279" y="0" type="line"/>
      <point x="18" y="0" type="line"/>
      <point x="289" y="549" type="line"/>
      <point x="27" y="1090" type="line"/>
      <point x="326" y="1090" type="line"/>
      <point x="467" y="770" type="line"/>
      <point x="610" y="1090" type="line"/>
      <point x="872" y="1090" type="line"/>
    </contour>
  </outline>
</glyph>
<glyph name="braceright" format="1">
  <advance width="733.184"/>
  <unicode hex="007D"/>
  <outline>
    <contour>
      <point x="709" y="717" type="qcurve"/>
      <point x="709" y="594" type="line"/>
      <point x="617.208955224" y="594.0"/>
      <point x="494.0" y="503.955223881"/>
      <point x="494" y="395" type="qcurve" smooth="yes"/>
      <point x="494.0" y="327.835820896"/>
      <point x="524.0" y="159.671641791"/>
      <point x="524" y="94" type="qcurve" smooth="yes"/>
      <point x="524.0" y="-34.3582089552"/>
      <point x="397.373134328" y="-164.0"/>
      <point x="272" y="-164" type="qcurve" smooth="yes"/>
      <point x="43" y="-164" type="line"/>
      <point x="43" y="-41" type="line"/>
      <point x="158" y="-41" type="line" smooth="yes"/>
      <point x="223.671641791" y="-41.0"/>
      <point x="289.0" y="30.8656716418"/>
      <point x="289" y="104" type="qcurve" smooth="yes"/>
      <point x="289.0" y="157.731343284"/>
      <point x="256.0" y="320.373134328"/>
      <point x="256" y="395" type="qcurve" smooth="yes"/>
      <point x="256.0" y="512.910447761"/>
      <point x="363.343283582" y="617.895522388"/>
      <point x="432" y="647" type="qcurve"/>
      <point x="432" y="664" type="line"/>
      <point x="363.343283582" y="692.358208955"/>
      <point x="256.0" y="797.835820896"/>
      <point x="256" y="915" type="qcurve" smooth="yes"/>
      <point x="256.0" y="990.373134328"/>
      <point x="289.0" y="1153.01492537"/>
      <point x="289" y="1206" type="qcurve" smooth="yes"/>
      <point x="289.0" y="1279.88059701"/>
      <point x="223.671641791" y="1352.0"/>
      <point x="158" y="1352" type="qcurve" smooth="yes"/>
      <point x="43" y="1352" type="line"/>
      <point x="43" y="1475" type="line"/>
      <point x="272" y="1475" type="line" smooth="yes"/>
      <point x="397.373134328" y="1475.0"/>
      <point x="524.0" y="1345.35820896"/>
      <point x="524" y="1217" type="qcurve" smooth="yes"/>
      <point x="524.0" y="1150.58208955"/>
      <point x="494.0" y="982.910447761"/>
      <point x="494" y="915" type="qcurve" smooth="yes"/>
      <point x="494.0" y="806.791044776"/>
      <point x="617.208955224" y="717.0"/>
    </contour>
  </outline>
</glyph>
<glyph name="asciitilde" format="1">
  <advance width="649.216"/>
  <unicode hex="007E"/>
  <outline>
    <contour>
      <point x="492" y="735" type="qcurve"/>
      <point x="608" y="735" type="line"/>
      <point x="613.970149254" y="585.746268657"/>
      <point x="538.582089552" y="442.0"/>
      <point x="455" y="442" type="qcurve" smooth="yes"/>
      <point x="373.656716418" y="442.0"/>
      <point x="259.029850746" y="541.0"/>
      <point x="215" y="541" type="qcurve" smooth="yes"/>
      <point x="185.895522388" y="541.0"/>
      <point x="159.492537313" y="496.746268657"/>
      <point x="158" y="446" type="qcurve"/>
      <point x="41" y="446" type="line"/>
      <point x="33.5373134328" y="597.492537313"/>
      <point x="110.671641791" y="739.0"/>
      <point x="195" y="739" type="qcurve" smooth="yes"/>
      <point x="275.597014925" y="739.0"/>
      <point x="389.970149254" y="641.0"/>
      <point x="434" y="641" type="qcurve" smooth="yes"/>
      <point x="463.104477612" y="641.0"/>
      <point x="489.76119403" y="685.0"/>
    </contour>
  </outline>
</glyph>
<glyph name="exclamdown" format="1">
  <advance width="477.184"/>
  <unicode hex="00A1"/>
  <outline>
    <contour>
      <point x="240" y="1489" type="qcurve" smooth="yes"/>
      <point x="304.179104478" y="1489.0"/>
      <point x="391.0" y="1400.67164179"/>
      <point x="391" y="1335" type="qcurve" smooth="yes"/>
      <point x="391.0" y="1270.82089552"/>
      <point x="304.179104478" y="1184.0"/>
      <point x="240" y="1184" type="qcurve" smooth="yes"/>
      <point x="174.328358209" y="1184.0"/>
      <point x="86.0" y="1270.82089552"/>
      <point x="86" y="1335" type="qcurve" smooth="yes"/>
      <point x="86.0" y="1400.67164179"/>
      <point x="174.328358209" y="1489.0"/>
    </contour>
    <contour>
      <point x="313" y="1034" type="line"/>
      <point x="401" y="0" type="line"/>
      <point x="76" y="0" type="line"/>
      <point x="164" y="1034" type="line"/>
    </contour>
  </outline>
</glyph>
<glyph name="cent" format="1">
  <advance width="819.2"/>
  <unicode hex="00A2"/>
  <outline>
    <contour>
      <point x="571" y="383" type="qcurve"/>
      <point x="784" y="338" type="line"/>
      <point x="760.119402985" y="167.104477612"/>
      <point x="587.940298507" y="-20.0"/>
      <point x="426" y="-20" type="qcurve" smooth="yes"/>
      <point x="386.447761194" y="-20.0"/>
      <point x="312.582089552" y="-5.4328358209"/>
      <point x="279" y="8" type="qcurve"/>
      <point x="197" y="-195" type="line"/>
      <point x="80" y="-195" type="line"/>
      <point x="190" y="68" type="line"/>
      <point x="122.835820896" y="132.179104478"/>
      <point x="47.0" y="344.701492537"/>
      <point x="47" y="485" type="qcurve" smooth="yes"/>
      <point x="47" y="608" type="line" smooth="yes"/>
      <point x="47.0" y="843.820895522"/>
      <point x="259.611940299" y="1110.0"/>
      <point x="432" y="1110" type="qcurve" smooth="yes"/>
      <point x="479.76119403" y="1110.0"/>
      <point x="562.417910448" y="1091.65671642"/>
      <point x="596" y="1073" type="qcurve"/>
      <point x="680" y="1284" type="line"/>
      <point x="795" y="1284" type="line"/>
      <point x="373" y="197" type="line"/>
      <point x="387.925373134" y="178.343283582"/>
      <point x="422.089552239" y="164.0"/>
      <point x="440" y="164" type="qcurve" smooth="yes"/>
      <point x="487.76119403" y="164.0"/>
      <point x="557.567164179" y="260.611940299"/>
    </contour>
    <contour>
      <point x="322" y="330" type="qcurve"/>
      <point x="520" y="889" type="line"/>
      <point x="503.582089552" y="910.641791045"/>
      <point x="460.626865672" y="930.0"/>
      <point x="436" y="930" type="qcurve" smooth="yes"/>
      <point x="383.014925373" y="930.0"/>
      <point x="303.0" y="789.925373134"/>
      <point x="303" y="625" type="qcurve" smooth="yes"/>
      <point x="303" y="481" type="line" smooth="yes"/>
      <point x="303.0" y="444.432835821"/>
      <point x="312.298507463" y="360.597014925"/>
    </contour>
  </outline>
</glyph>
<glyph name="yen" format="1">
  <advance width="1021.952"/>
  <unicode hex="00A5"/>
  <outline>
    <contour>
      <point x="737" y="1475" type="line"/>
      <point x="1008" y="1475" type="line"/>
      <point x="745" y="823" type="line"/>
      <point x="942" y="823" type="line"/>
      <point x="942" y="674" type="line"/>
      <point x="686" y="674" type="line"/>
      <point x="651" y="588" type="line"/>
      <point x="651" y="496" type="line"/>
      <point x="942" y="496" type="line"/>
      <point x="942" y="346" type="line"/>
      <point x="651" y="346" type="line"/>
      <point x="651" y="0" type="line"/>
      <point x="371" y="0" type="line"/>
      <point x="371" y="346" type="line"/>
      <point x="82" y="346" type="line"/>
      <point x="82" y="496" type="line"/>
      <point x="371" y="496" type="line"/>
      <point x="371" y="584" type="line"/>
      <point x="334" y="674" type="line"/>
      <point x="82" y="674" type="line"/>
      <point x="82" y="823" type="line"/>
      <point x="276" y="823" type="line"/>
      <point x="14" y="1475" type="line"/>
      <point x="324" y="1475" type="line"/>
      <point x="530" y="850" type="line"/>
    </contour>
  </outline>
</glyph>
<glyph name="section" format="1">
  <advance width="952.32"/>
  <unicode hex="00A7"/>
  <outline>
    <contour>
      <point x="528" y="1069" type="qcurve" smooth="yes"/>
      <point x="720.537313433" y="1012.28358209"/>
      <point x="918.0" y="876.358208955"/>
      <point x="918" y="748" type="qcurve" smooth="yes"/>
      <point x="918.0" y="642.029850746"/>
      <point x="773.194029851" y="512.955223881"/>
      <point x="662" y="504" type="qcurve"/>
      <point x="662" y="496" type="line"/>
      <point x="732.149253731" y="469.880597015"/>
      <point x="846.0" y="354.71641791"/>
      <point x="846" y="248" type="qcurve" smooth="yes"/>
      <point x="846.0" y="125.611940299"/>
      <point x="670.417910448" y="-25.0"/>
      <point x="504" y="-25" type="qcurve" smooth="yes"/>
      <point x="378.626865672" y="-25.0"/>
      <point x="187.343283582" y="40.5074626866"/>
      <point x="106" y="92" type="qcurve"/>
      <point x="199" y="279" type="line"/>
      <point x="273.626865672" y="231.23880597"/>
      <point x="436.835820896" y="176.0"/>
      <point x="504" y="176" type="qcurve" smooth="yes"/>
      <point x="555.492537313" y="176.0"/>
      <point x="616.0" y="219.432835821"/>
      <point x="616" y="256" type="qcurve" smooth="yes"/>
      <point x="616.0" y="300.029850746"/>
      <point x="541.910447761" y="371.671641791"/>
      <point x="424" y="406" type="qcurve" smooth="yes"/>
      <point x="231.462686567" y="461.970149254"/>
      <point x="35.0" y="598.641791045"/>
      <point x="35" y="727" type="qcurve" smooth="yes"/>
      <point x="35.0" y="832.223880597"/>
      <point x="179.059701493" y="961.298507463"/>
      <point x="291" y="971" type="qcurve"/>
      <point x="291" y="979" type="line"/>
      <point x="220.850746269" y="1005.11940299"/>
      <point x="106.0" y="1119.53731343"/>
      <point x="106" y="1227" type="qcurve" smooth="yes"/>
      <point x="106.0" y="1349.3880597"/>
      <point x="281.835820896" y="1499.0"/>
      <point x="449" y="1499" type="qcurve" smooth="yes"/>
      <point x="573.626865672" y="1499.0"/>
      <point x="764.656716418" y="1434.23880597"/>
      <point x="846" y="1382" type="qcurve"/>
      <point x="754" y="1196" type="line"/>
      <point x="678.626865672" y="1243.76119403"/>
      <point x="516.164179104" y="1298.0"/>
      <point x="449" y="1298" type="qcurve" smooth="yes"/>
      <point x="396.76119403" y="1298.0"/>
      <point x="336.0" y="1255.56716418"/>
      <point x="336" y="1219" type="qcurve" smooth="yes"/>
      <point x="336.0" y="1174.2238806"/>
      <point x="410.835820896" y="1102.58208955"/>
    </contour>
    <contour>
      <point x="571" y="600" type="qcurve" smooth="yes"/>
      <point x="620.253731343" y="600.0"/>
      <point x="696.0" y="649.492537313"/>
      <point x="696" y="698" type="qcurve" smooth="yes"/>
      <point x="696.0" y="735.313432836"/>
      <point x="633.626865672" y="809.910447761"/>
      <point x="559" y="842" type="qcurve" smooth="yes"/>
      <point x="520.940298507" y="856.925373134"/>
      <point x="428.014925373" y="874.0"/>
      <point x="381" y="874" type="qcurve" smooth="yes"/>
      <point x="331.746268657" y="874.0"/>
      <point x="256.0" y="825.253731343"/>
      <point x="256" y="776" type="qcurve" smooth="yes"/>
      <point x="256.0" y="739.432835821"/>
      <point x="318.373134328" y="665.089552239"/>
      <point x="393" y="633" type="qcurve" smooth="yes"/>
      <point x="431.059701493" y="617.328358209"/>
      <point x="523.985074627" y="600.0"/>
    </contour>
  </outline>
</glyph>
<glyph name="copyright" format="1">
  <advance width="1339.392"/>
  <unicode hex="00A9"/>
  <outline>
    <contour>
      <point x="754" y="635" type="qcurve"/>
      <point x="924" y="596" type="line"/>
      <point x="905.343283582" y="448.985074627"/>
      <point x="780.656716418" y="301.0"/>
      <point x="662" y="301" type="qcurve" smooth="yes"/>
      <point x="545.582089552" y="301.0"/>
      <point x="395.0" y="491.432835821"/>
      <point x="395" y="678" type="qcurve" smooth="yes"/>
      <point x="395" y="815" type="line" smooth="yes"/>
      <point x="395.0" y="1003.05970149"/>
      <point x="544.597014925" y="1192.0"/>
      <point x="664" y="1192" type="qcurve" smooth="yes"/>
      <point x="788.626865672" y="1192.0"/>
      <point x="904.835820896" y="1036.34328358"/>
      <point x="922" y="905" type="qcurve"/>
      <point x="748" y="864" type="line"/>
      <point x="739.791044776" y="964.746268657"/>
      <point x="702.059701493" y="1051.0"/>
      <point x="664" y="1051" type="qcurve" smooth="yes"/>
      <point x="617.731343284" y="1051.0"/>
      <point x="580.0" y="932.776119403"/>
      <point x="580" y="838" type="qcurve" smooth="yes"/>
      <point x="580" y="657" type="line" smooth="yes"/>
      <point x="580.0" y="556.253731343"/>
      <point x="622.71641791" y="444.0"/>
      <point x="666" y="444" type="qcurve" smooth="yes"/>
      <point x="704.059701493" y="444.0"/>
      <point x="742.805970149" y="531.268656716"/>
    </contour>
    <contour>
      <point x="672" y="1499" type="qcurve" smooth="yes"/>
      <point x="936.179104478" y="1499.0"/>
      <point x="1284.0" y="1063.62686567"/>
      <point x="1284" y="739" type="qcurve" smooth="yes"/>
      <point x="1284.0" y="413.626865672"/>
      <point x="934.179104478" y="-25.0"/>
      <point x="670" y="-25" type="qcurve" smooth="yes"/>
      <point x="405.074626866" y="-25.0"/>
      <point x="57.0" y="408.134328358"/>
      <point x="57" y="735" type="qcurve" smooth="yes"/>
      <point x="57.0" y="1062.6119403"/>
      <point x="405.582089552" y="1499.0"/>
    </contour>
    <contour>
      <point x="672" y="43" type="qcurve" smooth="yes"/>
      <point x="913.044776119" y="43.0"/>
      <point x="1210.0" y="443.208955224"/>
      <point x="1210" y="735" type="qcurve" smooth="yes"/>
      <point x="1210.0" y="1026.79104478"/>
      <point x="912.537313433" y="1432.0"/>
      <point x="670" y="1432" type="qcurve" smooth="yes"/>
      <point x="426.71641791" y="1432.0"/>
      <point x="131.0" y="1030.79104478"/>
      <point x="131" y="739" type="qcurve" smooth="yes"/>
      <point x="131.0" y="447.208955224"/>
      <point x="428.71641791" y="43.0"/>
    </contour>
  </outline>
</glyph>
<glyph name="uni00AE" format="1">
  <advance width="1339.392"/>
  <unicode hex="00AE"/>
  <outline>
    <contour>
      <point x="819" y="700" type="qcurve"/>
      <point x="969" y="322" type="line"/>
      <point x="780" y="322" type="line"/>
      <point x="655" y="653" type="line"/>
      <point x="614" y="653" type="line"/>
      <point x="614" y="322" type="line"/>
      <point x="434" y="322" type="line"/>
      <point x="434" y="1184" type="line"/>
      <point x="668" y="1184" type="line" smooth="yes"/>
      <point x="789.641791045" y="1184.0"/>
      <point x="944.0" y="1057.85074627"/>
      <point x="944" y="928" type="qcurve" smooth="yes"/>
      <point x="944.0" y="842.179104478"/>
      <point x="875.71641791" y="729.104477612"/>
    </contour>
    <contour>
      <point x="672" y="1499" type="qcurve" smooth="yes"/>
      <point x="936.179104478" y="1499.0"/>
      <point x="1284.0" y="1063.62686567"/>
      <point x="1284" y="739" type="qcurve" smooth="yes"/>
      <point x="1284.0" y="413.626865672"/>
      <point x="934.179104478" y="-25.0"/>
      <point x="670" y="-25" type="qcurve" smooth="yes"/>
      <point x="405.074626866" y="-25.0"/>
      <point x="57.0" y="408.134328358"/>
      <point x="57" y="735" type="qcurve" smooth="yes"/>
      <point x="57.0" y="1062.6119403"/>
      <point x="405.582089552" y="1499.0"/>
    </contour>
    <contour>
      <point x="672" y="43" type="qcurve" smooth="yes"/>
      <point x="913.044776119" y="43.0"/>
      <point x="1210.0" y="443.208955224"/>
      <point x="1210" y="735" type="qcurve" smooth="yes"/>
      <point x="1210.0" y="1026.79104478"/>
      <point x="912.537313433" y="1432.0"/>
      <point x="670" y="1432" type="qcurve" smooth="yes"/>
      <point x="426.71641791" y="1432.0"/>
      <point x="131.0" y="1030.79104478"/>
      <point x="131" y="739" type="qcurve" smooth="yes"/>
      <point x="131.0" y="447.208955224"/>
      <point x="428.71641791" y="43.0"/>
    </contour>
    <contour>
      <point x="657" y="782" type="line" smooth="yes"/>
      <point x="710.731343284" y="782.0"/>
      <point x="766.0" y="851.582089552"/>
      <point x="766" y="918" type="qcurve" smooth="yes"/>
      <point x="766.0" y="982.179104478"/>
      <point x="708.731343284" y="1047.0"/>
      <point x="655" y="1047" type="qcurve" smooth="yes"/>
      <point x="614" y="1047" type="line"/>
      <point x="614" y="782" type="line"/>
    </contour>
  </outline>
</glyph>
<glyph name="degree" format="1">
  <advance width="706.56"/>
  <unicode hex="00B0"/>
  <outline>
    <contour>
      <point x="360" y="1483" type="qcurve" smooth="yes"/>
      <point x="480.895522388" y="1483.0"/>
      <point x="643.0" y="1324.89552239"/>
      <point x="643" y="1204" type="qcurve" smooth="yes"/>
      <point x="643.0" y="1084.59701493"/>
      <point x="480.895522388" y="928.0"/>
      <point x="360" y="928" type="qcurve" smooth="yes"/>
      <point x="239.850746269" y="928.0"/>
      <point x="80.0" y="1084.59701493"/>
      <point x="80" y="1204" type="qcurve" smooth="yes"/>
      <point x="80.0" y="1324.89552239"/>
      <point x="239.850746269" y="1483.0"/>
    </contour>
    <contour>
      <point x="360" y="1044" type="qcurve" smooth="yes"/>
      <point x="427.910447761" y="1044.0"/>
      <point x="508.0" y="1136.8358209"/>
      <point x="508" y="1204" type="qcurve" smooth="yes"/>
      <point x="508.0" y="1272.65671642"/>
      <point x="427.910447761" y="1364.0"/>
      <point x="360" y="1364" type="qcurve" smooth="yes"/>
      <point x="294.328358209" y="1364.0"/>
      <point x="215.0" y="1272.65671642"/>
      <point x="215" y="1204" type="qcurve" smooth="yes"/>
      <point x="215.0" y="1136.8358209"/>
      <point x="294.328358209" y="1044.0"/>
    </contour>
  </outline>
</glyph>
<glyph name="acute" format="1">
  <advance width="813.056"/>
  <unicode hex="00B4"/>
  <outline>
    <contour>
      <point x="344" y="1458" type="line"/>
      <point x="649" y="1458" type="line"/>
      <point x="401" y="1188" type="line"/>
      <point x="217" y="1188" type="line"/>
    </contour>
  </outline>
</glyph>
<glyph name="periodcentered" format="1">
  <advance width="421.888"/>
  <unicode hex="00B7"/>
  <outline>
    <contour>
      <point x="211" y="723" type="qcurve" smooth="yes"/>
      <point x="276.671641791" y="723.0"/>
      <point x="365.0" y="634.671641791"/>
      <point x="365" y="569" type="qcurve" smooth="yes"/>
      <point x="365.0" y="503.328358209"/>
      <point x="276.671641791" y="416.0"/>
      <point x="211" y="416" type="qcurve" smooth="yes"/>
      <point x="145.328358209" y="416.0"/>
      <point x="59.0" y="503.328358209"/>
      <point x="59" y="569" type="qcurve" smooth="yes"/>
      <point x="59.0" y="634.671641791"/>
      <point x="145.328358209" y="723.0"/>
    </contour>
  </outline>
</glyph>
<glyph name="cedilla" format="1">
  <advance width="813.056"/>
  <unicode hex="00B8"/>
  <outline>
    <contour>
      <point x="479" y="-76" type="qcurve" smooth="yes"/>
      <point x="541.686567164" y="-76.0"/>
      <point x="621.0" y="-131.52238806"/>
      <point x="621" y="-186" type="qcurve" smooth="yes"/>
      <point x="621.0" y="-279.28358209"/>
      <point x="417.343283582" y="-369.47761194"/>
      <point x="186" y="-365" type="qcurve"/>
      <point x="186" y="-305" type="line"/>
      <point x="347.940298507" y="-303.507462687"/>
      <point x="473.0" y="-259.567164179"/>
      <point x="473" y="-223" type="qcurve" smooth="yes"/>
      <point x="473.0" y="-203.597014925"/>
      <point x="443.104477612" y="-182.0"/>
      <point x="414" y="-182" type="qcurve" smooth="yes"/>
      <point x="392.358208955" y="-182.0"/>
      <point x="344.895522388" y="-191.805970149"/>
      <point x="324" y="-203" type="qcurve"/>
      <point x="270" y="-162" type="line"/>
      <point x="375" y="0" type="line"/>
      <point x="455" y="0" type="line"/>
      <point x="399" y="-86" type="line"/>
      <point x="413.179104478" y="-83.0149253731"/>
      <point x="456.611940299" y="-76.0"/>
    </contour>
  </outline>
</glyph>
<glyph name="questiondown" format="1">
  <advance width="854.016"/>
  <unicode hex="00BF"/>
  <outline>
    <contour>
      <point x="602" y="438" type="qcurve"/>
      <point x="836" y="362" type="line"/>
      <point x="798.686567164" y="176.179104478"/>
      <point x="605.074626866" y="-25.0"/>
      <point x="420" y="-25" type="qcurve" smooth="yes"/>
      <point x="236.417910448" y="-25.0"/>
      <point x="43.0" y="183.611940299"/>
      <point x="43" y="356" type="qcurve" smooth="yes"/>
      <point x="43.0" y="501.52238806"/>
      <point x="149.223880597" y="673.194029851"/>
      <point x="244" y="762" type="qcurve" smooth="yes"/>
      <point x="315.641791045" y="829.164179104"/>
      <point x="377.537313433" y="939.223880597"/>
      <point x="385" y="1034" type="qcurve"/>
      <point x="545" y="1034" type="line"/>
      <point x="569.626865672" y="879.52238806"/>
      <point x="516.776119403" y="703.731343284"/>
      <point x="422" y="600" type="qcurve" smooth="yes"/>
      <point x="365.28358209" y="538.805970149"/>
      <point x="317.0" y="431.402985075"/>
      <point x="317" y="362" type="qcurve" smooth="yes"/>
      <point x="317.0" y="282.895522388"/>
      <point x="376.268656716" y="195.0"/>
      <point x="430" y="195" type="qcurve" smooth="yes"/>
      <point x="489.701492537" y="195.0"/>
      <point x="568.417910448" y="299.194029851"/>
    </contour>
    <contour>
      <point x="459" y="1489" type="qcurve" smooth="yes"/>
      <point x="524.671641791" y="1489.0"/>
      <point x="612.0" y="1400.67164179"/>
      <point x="612" y="1335" type="qcurve" smooth="yes"/>
      <point x="612.0" y="1270.82089552"/>
      <point x="524.671641791" y="1184.0"/>
      <point x="459" y="1184" type="qcurve" smooth="yes"/>
      <point x="394.820895522" y="1184.0"/>
      <point x="307.0" y="1270.82089552"/>
      <point x="307" y="1335" type="qcurve" smooth="yes"/>
      <point x="307.0" y="1400.67164179"/>
      <point x="394.820895522" y="1489.0"/>
    </contour>
  </outline>
</glyph>
<glyph name="AE" format="1">
  <advance width="1566.72"/>
  <unicode hex="00C6"/>
  <outline>
    <contour>
      <point x="1526" y="236" type="line"/>
      <point x="1526" y="0" type="line"/>
      <point x="768" y="0" type="line"/>
      <point x="768" y="336" type="line"/>
      <point x="426" y="336" type="line"/>
      <point x="307" y="0" type="line"/>
      <point x="14" y="0" type="line"/>
      <point x="557" y="1475" type="line"/>
      <point x="1507" y="1475" type="line"/>
      <point x="1507" y="1239" type="line"/>
      <point x="1059" y="1239" type="line"/>
      <point x="1059" y="874" type="line"/>
      <point x="1393" y="874" type="line"/>
      <point x="1393" y="651" type="line"/>
      <point x="1059" y="651" type="line"/>
      <point x="1059" y="236" type="line"/>
    </contour>
    <contour>
      <point x="489" y="543" type="line"/>
      <point x="768" y="543" type="line"/>
      <point x="768" y="1241" type="line"/>
      <point x="739" y="1241" type="line"/>
    </contour>
  </outline>
</glyph>
<glyph name="Eth" format="1">
  <advance width="1091.584"/>
  <unicode hex="00D0"/>
  <outline>
    <contour>
      <point x="1034" y="842" type="qcurve" smooth="yes"/>
      <point x="1034" y="633" type="line" smooth="yes"/>
      <point x="1034.0" y="316.582089552"/>
      <point x="761.119402985" y="0.0"/>
      <point x="535" y="0" type="qcurve" smooth="yes"/>
      <point x="137" y="0" type="line"/>
      <point x="137" y="651" type="line"/>
      <point x="37" y="651" type="line"/>
      <point x="37" y="872" type="line"/>
      <point x="137" y="872" type="line"/>
      <point x="137" y="1475" type="line"/>
      <point x="537" y="1475" type="line" smooth="yes"/>
      <point x="764.611940299" y="1475.0"/>
      <point x="1034.0" y="1158.41791045"/>
    </contour>
    <contour>
      <point x="518" y="217" type="line" smooth="yes"/>
      <point x="625.462686567" y="217.0"/>
      <point x="737.0" y="392.104477612"/>
      <point x="737" y="563" type="qcurve" smooth="yes"/>
      <point x="737" y="909" type="line" smooth="yes"/>
      <point x="737.0" y="1082.13432836"/>
      <point x="625.940298507" y="1257.0"/>
      <point x="514" y="1257" type="qcurve" smooth="yes"/>
      <point x="434" y="1257" type="line"/>
      <point x="434" y="872" type="line"/>
      <point x="567" y="872" type="line"/>
      <point x="567" y="651" type="line"/>
      <point x="434" y="651" type="line"/>
      <point x="434" y="217" type="line"/>
    </contour>
  </outline>
</glyph>
<glyph name="Oslash" format="1">
  <advance width="1046.528"/>
  <unicode hex="00D8"/>
  <outline>
    <contour>
      <point x="840" y="1673" type="line"/>
      <point x="995" y="1673" type="line"/>
      <point x="850" y="1348" type="line"/>
      <point x="915.671641791" y="1268.14925373"/>
      <point x="989.0" y="1022.41791045"/>
      <point x="989" y="856" type="qcurve" smooth="yes"/>
      <point x="989" y="621" type="line" smooth="yes"/>
      <point x="989.0" y="301.597014925"/>
      <point x="732.208955224" y="-25.0"/>
      <point x="524" y="-25" type="qcurve" smooth="yes"/>
      <point x="461.313432836" y="-25.0"/>
      <point x="346.014925373" y="7.89552238806"/>
      <point x="299" y="37" type="qcurve"/>
      <point x="207" y="-199" type="line"/>
      <point x="51" y="-199" type="line"/>
      <point x="197" y="127" type="line"/>
      <point x="132.820895522" y="206.104477612"/>
      <point x="57.0" y="450.089552239"/>
      <point x="57" y="618" type="qcurve" smooth="yes"/>
      <point x="57" y="854" type="line" smooth="yes"/>
      <point x="57.0" y="1173.40298507"/>
      <point x="315.044776119" y="1499.0"/>
      <point x="524" y="1499" type="qcurve" smooth="yes"/>
      <point x="585.194029851" y="1499.0"/>
      <point x="698.746268657" y="1468.59701493"/>
      <point x="748" y="1438" type="qcurve"/>
    </contour>
    <contour>
      <point x="524" y="182" type="qcurve" smooth="yes"/>
      <point x="614.298507463" y="182.0"/>
      <point x="694.0" y="381.059701493"/>
      <point x="694" y="543" type="qcurve" smooth="yes"/>
      <point x="694" y="1020" type="line"/>
      <point x="393" y="264" type="line"/>
      <point x="416.134328358" y="219.970149254"/>
      <point x="479.970149254" y="182.0"/>
    </contour>
    <contour>
      <point x="352" y="455" type="line"/>
      <point x="653" y="1210" type="line"/>
      <point x="632.104477612" y="1251.79104478"/>
      <point x="571.76119403" y="1292.0"/>
      <point x="524" y="1292" type="qcurve" smooth="yes"/>
      <point x="432.208955224" y="1292.0"/>
      <point x="352.0" y="1094.44776119"/>
      <point x="352" y="934" type="qcurve" smooth="yes"/>
    </contour>
  </outline>
</glyph>
<glyph name="germandbls" format="1">
  <advance width="1036.288"/>
  <unicode hex="00DF"/>
  <outline>
    <contour>
      <point x="719" y="842" type="line"/>
      <point x="834.671641791" y="789.76119403"/>
      <point x="995.0" y="571.119402985"/>
      <point x="995" y="395" type="qcurve" smooth="yes"/>
      <point x="995.0" y="190.52238806"/>
      <point x="810.970149254" y="-18.0"/>
      <point x="655" y="-18" type="qcurve" smooth="yes"/>
      <point x="583.358208955" y="-18.0"/>
      <point x="498.074626866" y="12.3731343284"/>
      <point x="463" y="37" type="qcurve"/>
      <point x="489" y="231" type="line"/>
      <point x="510.641791045" y="213.089552239"/>
      <point x="555.910447761" y="188.0"/>
      <point x="588" y="188" type="qcurve" smooth="yes"/>
      <point x="644.71641791" y="188.0"/>
      <point x="719.0" y="290.791044776"/>
      <point x="719" y="399" type="qcurve" smooth="yes"/>
      <point x="719.0" y="537.059701493"/>
      <point x="602.402985075" y="713.671641791"/>
      <point x="483" y="748" type="qcurve"/>
      <point x="483" y="932" type="line"/>
      <point x="559.865671642" y="940.955223881"/>
      <point x="633.0" y="1073.20895522"/>
      <point x="633" y="1165" type="qcurve" smooth="yes"/>
      <point x="633.0" y="1250.82089552"/>
      <point x="571.164179104" y="1362.0"/>
      <point x="504" y="1362" type="qcurve" smooth="yes"/>
      <point x="427.134328358" y="1362.0"/>
      <point x="371.0" y="1234.41791045"/>
      <point x="371" y="1118" type="qcurve" smooth="yes"/>
      <point x="371" y="0" type="line"/>
      <point x="76" y="0" type="line"/>
      <point x="76" y="1083" type="line" smooth="yes"/>
      <point x="76.0" y="1323.29850746"/>
      <point x="320.417910448" y="1554.0"/>
      <point x="504" y="1554" type="qcurve" smooth="yes"/>
      <point x="690.567164179" y="1554.0"/>
      <point x="905.0" y="1350.92537313"/>
      <point x="905" y="1186" type="qcurve" smooth="yes"/>
      <point x="905.0" y="1037.49253731"/>
      <point x="778.701492537" y="881.611940299"/>
      <point x="719" y="854" type="qcurve"/>
    </contour>
  </outline>
</glyph>
<glyph name="ccedilla" format="1">
  <advance width="813.056"/>
  <unicode hex="00E7"/>
  <outline>
    <contour>
      <point x="557" y="383" type="qcurve"/>
      <point x="784" y="338" type="line"/>
      <point x="761.611940299" y="176.059701493"/>
      <point x="605.268656716" y="-10.5373134328"/>
      <point x="459" y="-18" type="qcurve"/>
      <point x="416" y="-86" type="line"/>
      <point x="429.432835821" y="-83.0149253731"/>
      <point x="472.358208955" y="-76.0"/>
      <point x="494" y="-76" type="qcurve" smooth="yes"/>
      <point x="558.179104478" y="-76.0"/>
      <point x="637.0" y="-131.52238806"/>
      <point x="637" y="-186" type="qcurve" smooth="yes"/>
      <point x="637.0" y="-279.28358209"/>
      <point x="433.597014925" y="-369.47761194"/>
      <point x="203" y="-365" type="qcurve"/>
      <point x="203" y="-305" type="line"/>
      <point x="364.940298507" y="-303.507462687"/>
      <point x="489.0" y="-259.567164179"/>
      <point x="489" y="-223" type="qcurve" smooth="yes"/>
      <point x="489.0" y="-203.597014925"/>
      <point x="459.104477612" y="-182.0"/>
      <point x="430" y="-182" type="qcurve" smooth="yes"/>
      <point x="406.865671642" y="-182.0"/>
      <point x="361.641791045" y="-191.805970149"/>
      <point x="340" y="-203" type="qcurve"/>
      <point x="285" y="-162" type="line"/>
      <point x="381" y="-18" type="line"/>
      <point x="225.029850746" y="-0.089552238806"/>
      <point x="47.0" y="267.089552239"/>
      <point x="47" y="485" type="qcurve" smooth="yes"/>
      <point x="47" y="602" type="line" smooth="yes"/>
      <point x="47.0" y="835.582089552"/>
      <point x="259.611940299" y="1110.0"/>
      <point x="432" y="1110" type="qcurve" smooth="yes"/>
      <point x="596.925373134" y="1110.0"/>
      <point x="764.089552239" y="905.223880597"/>
      <point x="782" y="750" type="qcurve"/>
      <point x="545" y="705" type="line"/>
      <point x="533.805970149" y="820.671641791"/>
      <point x="483.76119403" y="920.0"/>
      <point x="436" y="920" type="qcurve" smooth="yes"/>
      <point x="383.014925373" y="920.0"/>
      <point x="324.0" y="775.23880597"/>
      <point x="324" y="623" type="qcurve" smooth="yes"/>
      <point x="324" y="469" type="line" smooth="yes"/>
      <point x="324.0" y="314.52238806"/>
      <point x="385.52238806" y="170.0"/>
      <point x="440" y="170" type="qcurve" smooth="yes"/>
      <point x="484.776119403" y="170.0"/>
      <point x="543.567164179" y="266.582089552"/>
    </contour>
  </outline>
</glyph>
<glyph name="eth" format="1">
  <advance width="876.544"/>
  <unicode hex="00F0"/>
  <outline>
    <contour>
      <point x="842" y="633" type="qcurve" smooth="yes"/>
      <point x="842" y="508" type="line" smooth="yes"/>
      <point x="842.0" y="246.805970149"/>
      <point x="616.597014925" y="-20.0"/>
      <point x="436" y="-20" type="qcurve" smooth="yes"/>
      <point x="254.656716418" y="-20.0"/>
      <point x="49.0" y="246.805970149"/>
      <point x="49" y="508" type="qcurve" smooth="yes"/>
      <point x="49" y="580" type="line" smooth="yes"/>
      <point x="49.0" y="841.194029851"/>
      <point x="220.492537313" y="1096.0"/>
      <point x="369" y="1096" type="qcurve" smooth="yes"/>
      <point x="433.179104478" y="1096.0"/>
      <point x="537.417910448" y="1008.59701493"/>
      <point x="571" y="928" type="qcurve"/>
      <point x="584" y="928" type="line"/>
      <point x="569.820895522" y="1018.29850746"/>
      <point x="486.686567164" y="1202.41791045"/>
      <point x="424" y="1286" type="qcurve"/>
      <point x="238" y="1182" type="line"/>
      <point x="238" y="1296" type="line"/>
      <point x="356" y="1366" type="line"/>
      <point x="326.895522388" y="1396.59701493"/>
      <point x="262.582089552" y="1456.88059701"/>
      <point x="229" y="1483" type="qcurve"/>
      <point x="449" y="1561" type="line"/>
      <point x="474.373134328" y="1536.37313433"/>
      <point x="528.373134328" y="1484.59701493"/>
      <point x="553" y="1454" type="qcurve"/>
      <point x="752" y="1561" type="line"/>
      <point x="752" y="1452" type="line"/>
      <point x="618" y="1378" type="line"/>
      <point x="715.014925373" y="1246.65671642"/>
      <point x="842.0" y="879.268656716"/>
    </contour>
    <contour>
      <point x="446" y="164" type="qcurve" smooth="yes"/>
      <point x="505.701492537" y="164.0"/>
      <point x="569.0" y="312.447761194"/>
      <point x="569" y="502" type="qcurve" smooth="yes"/>
      <point x="569" y="586" type="line" smooth="yes"/>
      <point x="569.0" y="775.552238806"/>
      <point x="503.701492537" y="926.0"/>
      <point x="444" y="926" type="qcurve" smooth="yes"/>
      <point x="385.044776119" y="926.0"/>
      <point x="322.0" y="775.552238806"/>
      <point x="322" y="586" type="qcurve" smooth="yes"/>
      <point x="322" y="502" type="line" smooth="yes"/>
      <point x="322.0" y="313.940298507"/>
      <point x="387.044776119" y="164.0"/>
    </contour>
  </outline>
</glyph>
<glyph name="oslash" format="1">
  <advance width="894.976"/>
  <unicode hex="00F8"/>
  <outline>
    <contour>
      <point x="694" y="1284" type="line"/>
      <point x="836" y="1284" type="line"/>
      <point x="711" y="1004" type="line"/>
      <point x="775.179104478" y="937.582089552"/>
      <point x="848.0" y="732.328358209"/>
      <point x="848" y="598" type="qcurve" smooth="yes"/>
      <point x="848" y="494" type="line" smooth="yes"/>
      <point x="848.0" y="258.179104478"/>
      <point x="634.059701493" y="-20.0"/>
      <point x="446" y="-20" type="qcurve" smooth="yes"/>
      <point x="397.492537313" y="-20.0"/>
      <point x="318.582089552" y="-0.417910447761"/>
      <point x="285" y="16" type="qcurve"/>
      <point x="201" y="-195" type="line"/>
      <point x="59" y="-195" type="line"/>
      <point x="184" y="86" type="line"/>
      <point x="118.328358209" y="153.164179104"/>
      <point x="47.0" y="357.432835821"/>
      <point x="47" y="494" type="qcurve" smooth="yes"/>
      <point x="47" y="598" type="line" smooth="yes"/>
      <point x="47.0" y="833.074626866"/>
      <point x="260.940298507" y="1110.0"/>
      <point x="449" y="1110" type="qcurve" smooth="yes"/>
      <point x="493.029850746" y="1110.0"/>
      <point x="574.925373134" y="1091.65671642"/>
      <point x="610" y="1073" type="qcurve"/>
    </contour>
    <contour>
      <point x="322" y="352" type="line"/>
      <point x="535" y="879" type="line"/>
      <point x="522.313432836" y="902.880597015"/>
      <point x="478.089552239" y="932.0"/>
      <point x="446" y="932" type="qcurve" smooth="yes"/>
      <point x="381.820895522" y="932.0"/>
      <point x="322.0" y="773.970149254"/>
      <point x="322" y="618" type="qcurve" smooth="yes"/>
    </contour>
    <contour>
      <point x="449" y="158" type="qcurve" smooth="yes"/>
      <point x="510.940298507" y="158.0"/>
      <point x="573.0" y="315.537313433"/>
      <point x="573" y="473" type="qcurve" smooth="yes"/>
      <point x="573" y="737" type="line"/>
      <point x="360" y="211" type="line"/>
      <point x="374.179104478" y="183.388059701"/>
      <point x="421.388059701" y="158.0"/>
    </contour>
  </outline>
</glyph>
<glyph name="dotlessi" format="1">
  <advance width="442.368"/>
  <unicode hex="0131"/>
  <outline>
    <contour>
      <point x="360" y="1090" type="line"/>
      <point x="360" y="0" type="line"/>
      <point x="80" y="0" type="line"/>
      <point x="80" y="1090" type="line"/>
    </contour>
  </outline>
</glyph>
<glyph name="OE" format="1">
  <advance width="1452.032"/>
  <unicode hex="0152"/>
  <outline>
    <contour>
      <point x="1409" y="236" type="line"/>
      <point x="1409" y="0" type="line"/>
      <point x="551" y="0" type="line" smooth="yes"/>
      <point x="332.343283582" y="0.0"/>
      <point x="57.0" y="310.611940299"/>
      <point x="57" y="633" type="qcurve" smooth="yes"/>
      <point x="57" y="842" type="line" smooth="yes"/>
      <point x="57.0" y="1165.88059701"/>
      <point x="335.835820896" y="1475.0"/>
      <point x="553" y="1475" type="qcurve" smooth="yes"/>
      <point x="1393" y="1475" type="line"/>
      <point x="1393" y="1239" type="line"/>
      <point x="942" y="1239" type="line"/>
      <point x="942" y="874" type="line"/>
      <point x="1276" y="874" type="line"/>
      <point x="1276" y="651" type="line"/>
      <point x="942" y="651" type="line"/>
      <point x="942" y="236" type="line"/>
    </contour>
    <contour>
      <point x="573" y="209" type="qcurve" smooth="yes"/>
      <point x="653" y="209" type="line"/>
      <point x="653" y="1264" type="line"/>
      <point x="569" y="1264" type="line" smooth="yes"/>
      <point x="460.791044776" y="1264.0"/>
      <point x="346.0" y="1078.1641791"/>
      <point x="346" y="911" type="qcurve" smooth="yes"/>
      <point x="346" y="565" type="line" smooth="yes"/>
      <point x="346.0" y="397.089552239"/>
      <point x="461.805970149" y="209.0"/>
    </contour>
  </outline>
</glyph>
<glyph name="oe" format="1">
  <advance width="1396.736"/>
  <unicode hex="0153"/>
  <outline>
    <contour>
      <point x="1352" y="565" type="qcurve" smooth="yes"/>
      <point x="1352" y="475" type="line"/>
      <point x="840" y="475" type="line"/>
      <point x="840" y="459" type="line" smooth="yes"/>
      <point x="840.0" y="316.462686567"/>
      <point x="947.731343284" y="193.0"/>
      <point x="1044" y="193" type="qcurve" smooth="yes"/>
      <point x="1100.71641791" y="193.0"/>
      <point x="1233.82089552" y="241.208955224"/>
      <point x="1298" y="283" type="qcurve"/>
      <point x="1360" y="98" type="line"/>
      <point x="1278.65671642" y="45.0149253731"/>
      <point x="1099.0" y="-16.0"/>
      <point x="999" y="-16" type="qcurve" smooth="yes"/>
      <point x="901.23880597" y="-16.0"/>
      <point x="753.089552239" y="84.6865671642"/>
      <point x="721" y="172" type="qcurve"/>
      <point x="711" y="172" type="line"/>
      <point x="678.910447761" y="87.671641791"/>
      <point x="539.253731343" y="-20.0"/>
      <point x="440" y="-20" type="qcurve" smooth="yes"/>
      <point x="260.149253731" y="-20.0"/>
      <point x="47.0" y="258.179104478"/>
      <point x="47" y="494" type="qcurve" smooth="yes"/>
      <point x="47" y="598" type="line" smooth="yes"/>
      <point x="47.0" y="833.074626866"/>
      <point x="260.149253731" y="1110.0"/>
      <point x="440" y="1110" type="qcurve" smooth="yes"/>
      <point x="531.791044776" y="1110.0"/>
      <point x="683.865671642" y="1000.59701493"/>
      <point x="707" y="920" type="qcurve"/>
      <point x="717" y="920" type="line"/>
      <point x="743.119402985" y="1005.07462687"/>
      <point x="893.179104478" y="1110.0"/>
      <point x="979" y="1110" type="qcurve" smooth="yes"/>
      <point x="1152.88059701" y="1110.0"/>
      <point x="1352.0" y="818.731343284"/>
    </contour>
    <contour>
      <point x="449" y="164" type="qcurve" smooth="yes"/>
      <point x="510.940298507" y="164.0"/>
      <point x="573.0" y="315.029850746"/>
      <point x="573" y="471" type="qcurve" smooth="yes"/>
      <point x="573" y="621" type="line" smooth="yes"/>
      <point x="573.0" y="774.731343284"/>
      <point x="508.686567164" y="926.0"/>
      <point x="446" y="926" type="qcurve" smooth="yes"/>
      <point x="383.313432836" y="926.0"/>
      <point x="324.0" y="774.731343284"/>
      <point x="324" y="621" type="qcurve" smooth="yes"/>
      <point x="324" y="471" type="line" smooth="yes"/>
      <point x="324.0" y="315.029850746"/>
      <point x="386.313432836" y="164.0"/>
    </contour>
    <contour>
      <point x="840" y="596" type="line"/>
      <point x="1096" y="596" type="line"/>
      <point x="1094.50746269" y="779.582089552"/>
      <point x="1029.20895522" y="934.0"/>
      <point x="971" y="934" type="qcurve" smooth="yes"/>
      <point x="908.313432836" y="934.0"/>
      <point x="840.0" y="780.597014925"/>
      <point x="840" y="600" type="qcurve" smooth="yes"/>
    </contour>
  </outline>
</glyph>
<glyph name="circumflex" format="1">
  <advance width="813.056"/>
  <unicode hex="02C6"/>
  <outline>
    <contour>
      <point x="514" y="1460" type="line"/>
      <point x="680" y="1186" type="line"/>
      <point x="553" y="1186" type="line"/>
      <point x="408" y="1317" type="line"/>
      <point x="262" y="1186" type="line"/>
      <point x="133" y="1186" type="line"/>
      <point x="299" y="1460" type="line"/>
    </contour>
  </outline>
</glyph>
<glyph name="breve" format="1">
  <advance width="813.056"/>
  <unicode hex="02D8"/>
  <outline>
    <contour>
      <point x="563" y="1460" type="qcurve"/>
      <point x="668" y="1460" type="line"/>
      <point x="665.014925373" y="1330.14925373"/>
      <point x="538.835820896" y="1182.0"/>
      <point x="406" y="1182" type="qcurve" smooth="yes"/>
      <point x="273.910447761" y="1182.0"/>
      <point x="148.223880597" y="1330.14925373"/>
      <point x="143" y="1460" type="qcurve"/>
      <point x="250" y="1460" type="line"/>
      <point x="260.447761194" y="1394.32835821"/>
      <point x="341.074626866" y="1329.0"/>
      <point x="406" y="1329" type="qcurve" smooth="yes"/>
      <point x="471.671641791" y="1329.0"/>
      <point x="551.059701493" y="1394.32835821"/>
    </contour>
  </outline>
</glyph>
<glyph name="ogonek" format="1">
  <advance width="813.056"/>
  <unicode hex="02DB"/>
  <outline>
    <contour>
      <point x="604" y="-223" type="qcurve"/>
      <point x="631" y="-299" type="line"/>
      <point x="577.268656716" y="-329.597014925"/>
      <point x="464.671641791" y="-362.0"/>
      <point x="399" y="-362" type="qcurve" smooth="yes"/>
      <point x="312.432835821" y="-362.0"/>
      <point x="215.0" y="-284.164179104"/>
      <point x="215" y="-217" type="qcurve" smooth="yes"/>
      <point x="215.0" y="-155.805970149"/>
      <point x="306.402985075" y="-45.5223880597"/>
      <point x="387" y="0" type="qcurve"/>
      <point x="498" y="0" type="line"/>
      <point x="429.343283582" y="-55.223880597"/>
      <point x="377.0" y="-141.432835821"/>
      <point x="377" y="-178" type="qcurve" smooth="yes"/>
      <point x="377.0" y="-211.582089552"/>
      <point x="422.940298507" y="-252.0"/>
      <point x="461" y="-252" type="qcurve" smooth="yes"/>
      <point x="494.582089552" y="-252.0"/>
      <point x="561.462686567" y="-238.671641791"/>
    </contour>
  </outline>
</glyph>
<glyph name="emdash" format="1">
  <advance width="1648.64"/>
  <unicode hex="2014"/>
  <outline>
    <contour>
      <point x="1595" y="702" type="line"/>
      <point x="1595" y="479" type="line"/>
      <point x="53" y="479" type="line"/>
      <point x="53" y="702" type="line"/>
    </contour>
  </outline>
</glyph>
<glyph name="quoteleft" format="1">
  <advance width="415.744"/>
  <unicode hex="2018"/>
  <unicode hex="02BB"/>
  <outline>
    <contour>
      <point x="313" y="1475" type="line"/>
      <point x="365" y="950" type="line"/>
      <point x="240" y="950" type="line"/>
      <point x="41" y="1475" type="line"/>
    </contour>
  </outline>
</glyph>
<glyph name="dagger" format="1">
  <advance width="792.576"/>
  <unicode hex="2020"/>
  <outline>
    <contour>
      <point x="752" y="1128" type="line"/>
      <point x="752" y="897" type="line"/>
      <point x="467" y="967" type="line"/>
      <point x="528" y="696" type="line"/>
      <point x="442" y="0" type="line"/>
      <point x="350" y="0" type="line"/>
      <point x="264" y="696" type="line"/>
      <point x="326" y="967" type="line"/>
      <point x="41" y="897" type="line"/>
      <point x="41" y="1128" type="line"/>
      <point x="326" y="1057" type="line"/>
      <point x="264" y="1475" type="line"/>
      <point x="528" y="1475" type="line"/>
      <point x="467" y="1057" type="line"/>
    </contour>
  </outline>
</glyph>
<glyph name="daggerdbl" format="1">
  <advance width="825.344"/>
  <unicode hex="2021"/>
  <outline>
    <contour>
      <point x="768" y="537" type="line"/>
      <point x="768" y="305" type="line"/>
      <point x="479" y="377" type="line"/>
      <point x="545" y="0" type="line"/>
      <point x="279" y="0" type="line"/>
      <point x="346" y="377" type="line"/>
      <point x="57" y="305" type="line"/>
      <point x="57" y="537" type="line"/>
      <point x="346" y="467" type="line"/>
      <point x="283" y="737" type="line"/>
      <point x="346" y="1008" type="line"/>
      <point x="57" y="938" type="line"/>
      <point x="57" y="1169" type="line"/>
      <point x="346" y="1098" type="line"/>
      <point x="279" y="1475" type="line"/>
      <point x="545" y="1475" type="line"/>
      <point x="479" y="1098" type="line"/>
      <point x="768" y="1169" type="line"/>
      <point x="768" y="938" type="line"/>
      <point x="479" y="1008" type="line"/>
      <point x="541" y="737" type="line"/>
      <point x="479" y="467" type="line"/>
    </contour>
  </outline>
</glyph>
<glyph name="ellipsis" format="1">
  <advance width="1247.232"/>
  <unicode hex="2026"/>
  <outline>
    <contour>
      <point x="205" y="276" type="qcurve" smooth="yes"/>
      <point x="267.686567164" y="276.0"/>
      <point x="352.0" y="193.686567164"/>
      <point x="352" y="131" type="qcurve" smooth="yes"/>
      <point x="352.0" y="69.8059701493"/>
      <point x="267.686567164" y="-14.0"/>
      <point x="205" y="-14" type="qcurve" smooth="yes"/>
      <point x="143.805970149" y="-14.0"/>
      <point x="59.0" y="69.8059701493"/>
      <point x="59" y="131" type="qcurve" smooth="yes"/>
      <point x="59.0" y="193.686567164"/>
      <point x="143.805970149" y="276.0"/>
    </contour>
    <contour>
      <point x="625" y="276" type="qcurve" smooth="yes"/>
      <point x="686.194029851" y="276.0"/>
      <point x="770.0" y="193.686567164"/>
      <point x="770" y="131" type="qcurve" smooth="yes"/>
      <point x="770.0" y="69.8059701493"/>
      <point x="686.194029851" y="-14.0"/>
      <point x="625" y="-14" type="qcurve" smooth="yes"/>
      <point x="562.313432836" y="-14.0"/>
      <point x="477.0" y="69.8059701493"/>
      <point x="477" y="131" type="qcurve" smooth="yes"/>
      <point x="477.0" y="193.686567164"/>
      <point x="562.313432836" y="276.0"/>
    </contour>
    <contour>
      <point x="1042" y="276" type="qcurve" smooth="yes"/>
      <point x="1104.68656716" y="276.0"/>
      <point x="1188.0" y="193.686567164"/>
      <point x="1188" y="131" type="qcurve" smooth="yes"/>
      <point x="1188.0" y="69.8059701493"/>
      <point x="1104.68656716" y="-14.0"/>
      <point x="1042" y="-14" type="qcurve" smooth="yes"/>
      <point x="979.313432836" y="-14.0"/>
      <point x="897.0" y="69.8059701493"/>
      <point x="897" y="131" type="qcurve" smooth="yes"/>
      <point x="897.0" y="193.686567164"/>
      <point x="979.313432836" y="276.0"/>
    </contour>
  </outline>
</glyph>
<glyph name="guilsinglleft" format="1">
  <advance width="481.28"/>
  <unicode hex="2039"/>
  <outline>
    <contour>
      <point x="291" y="545" type="line"/>
      <point x="434" y="143" type="line"/>
      <point x="293" y="143" type="line"/>
      <point x="25" y="545" type="line"/>
      <point x="293" y="946" type="line"/>
      <point x="434" y="946" type="line"/>
    </contour>
  </outline>
</glyph>
<glyph name="fraction" format="1">
  <advance width="661.504"/>
  <unicode hex="2044"/>
  <outline>
    <contour>
      <point x="530" y="1505" type="line"/>
      <point x="760" y="1505" type="line"/>
      <point x="131" y="-31" type="line"/>
      <point x="-98" y="-31" type="line"/>
    </contour>
  </outline>
</glyph>
<glyph name="Euro" format="1">
  <advance width="972.8"/>
  <unicode hex="20AC"/>
  <outline>
    <contour>
      <point x="733" y="428" type="qcurve"/>
      <point x="942" y="317" type="line"/>
      <point x="899.462686567" y="169.23880597"/>
      <point x="713.492537313" y="-25.0"/>
      <point x="512" y="-25" type="qcurve" smooth="yes"/>
      <point x="306.029850746" y="-25.0"/>
      <point x="53.0" y="302.805970149"/>
      <point x="53" y="664" type="qcurve" smooth="yes"/>
      <point x="53" y="811" type="line" smooth="yes"/>
      <point x="53.0" y="1168.46268657"/>
      <point x="308.029850746" y="1499.0"/>
      <point x="514" y="1499" type="qcurve" smooth="yes"/>
      <point x="711.014925373" y="1499.0"/>
      <point x="894.955223881" y="1310.04477612"/>
      <point x="936" y="1169" type="qcurve"/>
      <point x="725" y="1055" type="line"/>
      <point x="692.910447761" y="1161.71641791"/>
      <point x="603.850746269" y="1280.0"/>
      <point x="524" y="1280" type="qcurve" smooth="yes"/>
      <point x="435.940298507" y="1280.0"/>
      <point x="340.47761194" y="1094.47761194"/>
      <point x="336" y="940" type="qcurve"/>
      <point x="698" y="940" type="line"/>
      <point x="698" y="793" type="line"/>
      <point x="332" y="793" type="line"/>
      <point x="332" y="662" type="line"/>
      <point x="698" y="662" type="line"/>
      <point x="698" y="514" type="line"/>
      <point x="338" y="514" type="line"/>
      <point x="343.970149254" y="366.985074627"/>
      <point x="437.0" y="195.0"/>
      <point x="537" y="195" type="qcurve" smooth="yes"/>
      <point x="608.641791045" y="195.0"/>
      <point x="699.417910448" y="314.567164179"/>
    </contour>
  </outline>
</glyph>
<glyph name="trademark" format="1">
  <advance width="1181.696"/>
  <unicode hex="2122"/>
  <outline>
    <contour>
      <point x="1124" y="1473" type="line"/>
      <point x="1124" y="836" type="line"/>
      <point x="985" y="836" type="line"/>
      <point x="985" y="1303" type="line"/>
      <point x="981" y="1303" type="line"/>
      <point x="891" y="836" type="line"/>
      <point x="737" y="836" type="line"/>
      <point x="647" y="1303" type="line"/>
      <point x="643" y="1303" type="line"/>
      <point x="643" y="836" type="line"/>
      <point x="512" y="836" type="line"/>
      <point x="512" y="1473" type="line"/>
      <point x="733" y="1473" type="line"/>
      <point x="819" y="1022" type="line"/>
      <point x="823" y="1022" type="line"/>
      <point x="907" y="1473" type="line"/>
    </contour>
    <contour>
      <point x="455" y="1475" type="line"/>
      <point x="455" y="1352" type="line"/>
      <point x="319" y="1352" type="line"/>
      <point x="319" y="840" type="line"/>
      <point x="172" y="840" type="line"/>
      <point x="172" y="1352" type="line"/>
      <point x="39" y="1352" type="line"/>
      <point x="39" y="1475" type="line"/>
    </contour>
  </outline>
</glyph>
<glyph name="fi" format="1">
  <advance width="1060.864"/>
  <unicode hex="FB01"/>
  <outline>
    <contour>
      <point x="629" y="1536" type="qcurve"/>
      <point x="629" y="1350" type="line"/>
      <point x="607.358208955" y="1358.95522388"/>
      <point x="566.373134328" y="1368.0"/>
      <point x="541" y="1368" type="qcurve" smooth="yes"/>
      <point x="488.76119403" y="1368.0"/>
      <point x="430.0" y="1305.14925373"/>
      <point x="430" y="1235" type="qcurve" smooth="yes"/>
      <point x="430" y="1083" type="line"/>
      <point x="610" y="1083" type="line"/>
      <point x="610" y="899" type="line"/>
      <point x="430" y="899" type="line"/>
      <point x="430" y="0" type="line"/>
      <point x="156" y="0" type="line"/>
      <point x="156" y="899" type="line"/>
      <point x="12" y="899" type="line"/>
      <point x="12" y="1083" type="line"/>
      <point x="156" y="1083" type="line"/>
      <point x="156" y="1257" type="line" smooth="yes"/>
      <point x="156.0" y="1404.01492537"/>
      <point x="310.462686567" y="1554.0"/>
      <point x="453" y="1554" type="qcurve" smooth="yes"/>
      <point x="515.686567164" y="1554.0"/>
      <point x="593.925373134" y="1544.95522388"/>
    </contour>
    <contour>
      <point x="981" y="1090" type="line"/>
      <point x="981" y="0" type="line"/>
      <point x="700" y="0" type="line"/>
      <point x="700" y="1090" type="line"/>
    </contour>
    <contour>
      <point x="985" y="1475" type="line"/>
      <point x="985" y="1247" type="line"/>
      <point x="696" y="1247" type="line"/>
      <point x="696" y="1475" type="line"/>
    </contour>
  </outline>
</glyph>
<glyph name="I.salt" format="1">
  <advance width="483.328"/>
  <outline>
    <contour>
      <point x="391" y="1475" type="line"/>
      <point x="391" y="0" type="line"/>
      <point x="94" y="0" type="line"/>
      <point x="94" y="1475" type="line"/>
    </contour>
  </outline>
</glyph>
<glyph name="bullet" format="1">
  <advance width="731.136"/>
  <outline>
    <contour>
      <point x="367" y="1057" type="qcurve" smooth="yes"/>
      <point x="488.641791045" y="1057.0"/>
      <point x="659.0" y="886.388059701"/>
      <point x="659" y="764" type="qcurve" smooth="yes"/>
      <point x="659.0" y="641.611940299"/>
      <point x="488.641791045" y="471.0"/>
      <point x="367" y="471" type="qcurve" smooth="yes"/>
      <point x="243.119402985" y="471.0"/>
      <point x="72.0" y="641.611940299"/>
      <point x="72" y="764" type="qcurve" smooth="yes"/>
      <point x="72.0" y="886.388059701"/>
      <point x="243.119402985" y="1057.0"/>
    </contour>
  </outline>
</glyph>
<glyph name="endash.uc" format="1">
  <advance width="974.848"/>
  <outline>
    <contour>
      <point x="920" y="840" type="line"/>
      <point x="920" y="610" type="line"/>
      <point x="55" y="610" type="line"/>
      <point x="55" y="840" type="line"/>
    </contour>
  </outline>
</glyph>
<glyph name="macron" format="1">
  <advance width="813.056"/>
  <outline>
    <contour>
      <point x="653" y="1407" type="line"/>
      <point x="653" y="1251" type="line"/>
      <point x="160" y="1251" type="line"/>
      <point x="160" y="1407" type="line"/>
    </contour>
  </outline>
</glyph>
<glyph name="registered" format="1">
  <advance width="778.24"/>
  <outline>
    <contour>
      <point x="479" y="1063" type="qcurve"/>
      <point x="563" y="862" type="line"/>
      <point x="446" y="862" type="line"/>
      <point x="379" y="1036" type="line"/>
      <point x="360" y="1036" type="line"/>
      <point x="360" y="862" type="line"/>
      <point x="252" y="862" type="line"/>
      <point x="252" y="1325" type="line"/>
      <point x="391" y="1325" type="line" smooth="yes"/>
      <point x="459.656716418" y="1325.0"/>
      <point x="547.0" y="1256.14925373"/>
      <point x="547" y="1186" type="qcurve" smooth="yes"/>
      <point x="547.0" y="1141.2238806"/>
      <point x="509.597014925" y="1079.41791045"/>
    </contour>
    <contour>
      <point x="391" y="1487" type="qcurve" smooth="yes"/>
      <point x="536.52238806" y="1487.0"/>
      <point x="733.0" y="1256.64179104"/>
      <point x="733" y="1085" type="qcurve" smooth="yes"/>
      <point x="733.0" y="914.104477612"/>
      <point x="535.507462687" y="682.0"/>
      <point x="387" y="682" type="qcurve" smooth="yes"/>
      <point x="239.985074627" y="682.0"/>
      <point x="45.0" y="912.104477612"/>
      <point x="45" y="1083" type="qcurve" smooth="yes"/>
      <point x="45.0" y="1256.13432836"/>
      <point x="243.23880597" y="1487.0"/>
    </contour>
    <contour>
      <point x="391" y="725" type="qcurve" smooth="yes"/>
      <point x="523.835820896" y="725.0"/>
      <point x="690.0" y="933.746268657"/>
      <point x="690" y="1083" type="qcurve" smooth="yes"/>
      <point x="690.0" y="1233.0"/>
      <point x="521.328358209" y="1444.0"/>
      <point x="387" y="1444" type="qcurve" smooth="yes"/>
      <point x="254.164179104" y="1444.0"/>
      <point x="88.0" y="1235.0"/>
      <point x="88" y="1085" type="qcurve" smooth="yes"/>
      <point x="88.0" y="935.746268657"/>
      <point x="256.671641791" y="725.0"/>
    </contour>
    <contour>
      <point x="383" y="1112" type="line" smooth="yes"/>
      <point x="410.611940299" y="1112.0"/>
      <point x="438.0" y="1149.40298507"/>
      <point x="438" y="1180" type="qcurve" smooth="yes"/>
      <point x="438.0" y="1210.59701493"/>
      <point x="410.611940299" y="1243.0"/>
      <point x="383" y="1243" type="qcurve" smooth="yes"/>
      <point x="360" y="1243" type="line"/>
      <point x="360" y="1112" type="line"/>
    </contour>
  </outline>
</glyph>
